<?xml version="1.0" encoding="utf-8"?>
<!-- Generator: Adobe Illustrator 19.2.1, SVG Export Plug-In . SVG Version: 6.00 Build 0)  -->
<svg version="1.1" id="Ebene_1" xmlns="http://www.w3.org/2000/svg" xmlns:xlink="http://www.w3.org/1999/xlink" x="0px" y="0px"
	 viewBox="0 0 34 29.9" style="enable-background:new 0 0 34 29.9;" xml:space="preserve">
<style type="text/css">
	.st0{fill:#BAB4AC;}
	.st1{fill:#FFFFFF;}
</style>
<g>
	<path class="st0" d="M33.7,13.8L26.4,1.2c-0.4-0.7-1.2-1.2-2-1.2H9.7c-0.8,0-1.6,0.4-2,1.2L0.3,13.8c-0.4,0.7-0.4,1.6,0,2.3
		l7.3,12.6c0.4,0.7,1.2,1.1,2,1.1h14.7c0.8,0,1.6-0.4,2-1.1l7.3-12.7C34.1,15.4,34.1,14.5,33.7,13.8"/>
</g>
<g>
	<path class="st1" d="M18,20.5h-2v-4.6h-4.6V14H16V9.4h2V14h4.6v1.9H18V20.5z"/>
</g>
</svg>
