<?xml version="1.0" encoding="utf-8"?>
<!-- Generator: Adobe Illustrator 19.2.1, SVG Export Plug-In . SVG Version: 6.00 Build 0)  -->
<svg version="1.1" id="Ebene_1" xmlns="http://www.w3.org/2000/svg" xmlns:xlink="http://www.w3.org/1999/xlink" x="0px" y="0px"
	 viewBox="0 0 580 200" style="enable-background:new 0 0 580 200;" xml:space="preserve">
<style type="text/css">
	.st0{fill:#FFFFFF;}
</style>
<g>
	<path class="st0" d="M230.2,52.5h40.2v14.8h-7.9c-0.4-2-0.8-3.8-1-5.9c-3.2-0.4-7.2-0.1-10.7-0.2c-0.4,5.4-0.1,11.6-0.2,17.3h8.2
		c0.4-1.4,0.5-3.1,0.9-4.5h7.3c0.3,5.2,0.3,11.7,0,16.9h-7.3c-0.2-1.6-0.6-2.9-0.7-4.5h-8.4v16.8c2,0.5,4.5,0.6,6.8,0.9v7.2
		c-9-0.1-18.5,0.2-27.2-0.2v-7c2.2-0.1,4.1-0.6,6.3-0.7v-43c-2-0.4-4.3-0.5-6.3-0.9V52.5z"/>
	<path class="st0" d="M352.1,54.1c4.8-0.6,8.7,2.9,8.7,7.5c0.1,10.4-15.4,10-15.5,0.2C345.2,57.5,348.3,54.6,352.1,54.1"/>
	<path class="st0" d="M117.1,92.1c0,4.7,0.8,10.6,4,11.5c3.3,0.9,6.3-1.4,7.9-3.5V81C120.1,76.7,117,83.7,117.1,92.1 M103.3,96v-6.3
		c1.5-12.8,10.6-18.8,25.5-17.6c0.4-2.7,0.1-6.2,0.2-9.3c-1.7-0.7-4.1-0.5-5.9-1v-6.8c6.1-0.4,12.9-0.1,19.2-0.2
		c0.4,15.8,0.1,32.4,0.2,48.5c1.3,0.7,3.5,0.6,5.1,1v7h-16.6c-0.1-1.2-0.4-2.3-0.3-3.7c-2.7,1.9-5.6,4.1-9.8,4.5
		C109.3,113.4,104,106.2,103.3,96"/>
	<path class="st0" d="M383.5,60.5v11.9c2.7,0.1,5.9-0.2,8.4,0.2v7.5c-2.4,0.4-5.6,0.1-8.4,0.2c0.5,5.8-0.6,14,0,19.4
		c0.2,1.7,0.9,3.2,2.3,3.8c2,0.1,3.7-0.1,5.6-0.2v7.2c-6.1,1.9-15.2,2.7-18.9-1.6c-5.1-6-1.1-18.7-2.4-28.6h-5.4v-7.9h5.8
		c1.5-3.5,1.8-8.3,3.3-11.9H383.5z"/>
	<path class="st0" d="M448.8,117.6c1.6,4.3,13.9,4,14.8-1c1.3-6.5-8-5-12.7-4.9C449,112.6,447.9,115.2,448.8,117.6 M457.9,89.9
		c5.2-2.2,4-13.4-4-11.7C446.8,79.7,449.6,93.4,457.9,89.9 M476.7,64.2v9.3c-2.2-0.4-5.5-0.7-7.5,0.2c0.5,1.1,1.8,2,2.4,3.1
		c2.6,4.7,1.6,11.9-1.2,15.4c-3.9,4.9-12,5.8-20.4,5.4c-3.4,5.4,8.6,3.5,12.9,3.7c7.7,0.3,12.7,2.6,13.8,9.4v4.4
		c-0.5,2.7-1.7,5.5-3.7,7.5c-7,7.2-31.1,9.3-36.7,0.5c-3.5-5.5,1-11.9,5.4-13.4c-3.9-1.4-6.2-6.6-3.7-10.7c1.1-1.7,2.6-2.5,4-3.7
		c-4-1.8-5.9-7.2-5.4-12.6c1-11.1,14.1-13.7,25.7-11.5c1.2-0.9,1.5-2.2,2.3-3.1C467.1,65.2,471.1,63.9,476.7,64.2"/>
	<path class="st0" d="M302,71.9c-0.3,4.3-1.2,8-1.6,12.2c-3.2-1.2-8.3-1.5-10.8,0.5v18.5c1.7,0.6,3.8,0.6,5.8,0.9v7
		c-7.9,0.4-16.5,0.1-24.6,0.2V104c1.9-0.1,3.5-0.6,5.4-0.7V80.4c-1.6-0.5-3.6-0.6-5.4-0.9v-7.2h16.8c0.3,1.4,0.4,3,0.5,4.5
		C290.3,73.5,294.8,70.2,302,71.9"/>
	<path class="st0" d="M409.5,95.3c-3,1.5-3.2,7.5,0.4,8.2c2.4,0.5,5.9-1,6.5-3.1c0.5-1.8-0.4-3.6,0-5.8
		C413.3,94.8,411.5,94.3,409.5,95.3 M429.8,103.1c1.4,0.6,3.6,0.5,5.1,1v6.8c-5.1,0.4-11,0.1-16.4,0.2c-0.4-1.1-0.5-2.4-0.5-3.8
		c-3.4,4.1-13.9,6.6-19.7,2.8c-6-3.9-5.4-14.5-0.2-18.7c4.4-3.5,11-3.7,18.2-3.8c2.2-7.5-4.5-10.4-10.3-7.9
		c-0.2,1.6-0.2,3.5-0.5,5.1h-8.2V73.5c8.1-2.2,22.6-3.5,28.8,1.4C432.4,79.9,428.8,91.5,429.8,103.1"/>
	<path class="st0" d="M171.2,81.1c-1.6-2.4-6-2.3-7.7-0.2c-1.6,2-1.4,4.7-1.6,7.7h10.3C172.2,85.4,172.4,82.9,171.2,81.1
		 M185.7,95.6h-23.7c-0.4,10.6,13.5,8.2,22,7.2v7.9c-11.4,1.8-24,3.7-31.1-3.3c-6.9-6.9-6.6-23.5,0.5-30.6c3-3,8.2-5,13.8-5.1
		C181.6,71.5,187.3,80.1,185.7,95.6"/>
	<path class="st0" d="M220.2,72.2c-0.7,3.9-1.1,8.1-1.7,12c-3.1-1.1-8.6-1.4-10.8,0.7v18.5c1.9,0.4,3.9,0.5,5.8,0.9v7h-24.6v-7
		c1.7-0.4,3.7-0.5,5.4-0.9V80.6c-1.7-0.4-3.7-0.5-5.4-0.9v-7h16.9c0,1.6,0.4,2.7,0.3,4.4c1.3-0.6,1.8-2.3,3.1-3.3
		C211.8,71.7,215.9,71.3,220.2,72.2"/>
	<path class="st0" d="M323.8,80.4c-1.8-1.6-5.3-1.4-6.8,0.2c-1.7,1.8-1.7,5.1-1.9,8h10.5C325.4,85.1,325.5,82,323.8,80.4
		 M338.8,95.6h-23.7c-0.2,10.5,13.5,8.2,22.2,7.2v7.9c-6.4,1.1-12.1,2-19,1.6c-11.7-0.8-17.6-8.9-17.1-21
		c0.4-11.1,6.7-19.4,19.2-19.6C334.8,71.5,340.6,80.4,338.8,95.6"/>
	<path class="st0" d="M360.5,72.4c0.4,9.9,0.1,20.5,0.2,30.7c1.5,0.7,3.8,0.5,5.4,1v6.8c-7.7,0.3-16.7,0.3-24.4,0v-6.8
		c1.7-0.5,3.7-0.6,5.6-0.9V80.4c-1.6-0.6-3.9-0.5-5.6-1v-6.5c0-0.3,0.1-0.5,0.3-0.5C348.1,72.4,354.3,72.4,360.5,72.4"/>
	<path class="st0" d="M325,138.8c3.9-0.1,2.8-5.6,3-9.8C321.1,124.9,319.6,138.8,325,138.8 M331.1,120.6v18c0.4,0.6,1.7,0.1,1.9,0.9
		c-0.1,2-3.1,0.9-4.9,1.2c0-0.8-0.1-1.7,0.2-2.3c-1.1,2.6-6.6,3.4-8.6,0.5c-3.5-5,0.6-14.1,8-12c0.4-1,0.1-2.9,0.2-4.2
		c-0.4-0.7-2.2,0-2.1-1.2C326.6,120.1,329.3,120.8,331.1,120.6"/>
	<path class="st0" d="M196.2,123.9c-1.4-3.2,3.1-3.9,3.5-1.6C200,124.2,197.7,125.4,196.2,123.9"/>
	<path class="st0" d="M337.4,121.1c3.1-0.8,2.9,3.3,0.7,3.5C336.5,124.7,334.8,121.8,337.4,121.1"/>
	<path class="st0" d="M110.4,123.9c-0.8,4.3-0.1,10-0.3,14.7C122.2,142.4,122,120.5,110.4,123.9 M104.7,140.5
		c-0.3-1.6,1.3-1.4,2.1-1.9v-7c0-2.4,0.6-5.5,0-7c-0.5-1.2-2.3-0.5-2.1-2.1c4.9-0.5,11.1-1.2,14.5,0.9c4.3,2.6,4.4,10.5,1.2,14.1
		C117.1,141.3,111.6,140.9,104.7,140.5"/>
	<path class="st0" d="M156.3,122.2h5.8c1.5,4.7,3.4,9.1,5.1,13.6c1.8-4.4,3.4-9.1,5.1-13.6c1.9,0.1,4.2-0.2,5.8,0.2
		c0.2,1.5-1.3,1.4-2.1,1.9c0.6,4.7,1.2,9.4,1.9,14c0.1,1,1.7,0.6,1.6,1.9c-1.3,1.1-5.1,0.4-7,0.3c-0.2-1.6,1.3-1.4,1.9-2.1
		c-0.4-4.2-0.8-8.2-1.4-12.2c-1.9,4.7-3.5,9.6-5.2,14.5h-2.1c-1.8-4.9-3.8-9.6-5.4-14.7c-0.6,3.8-0.6,8.4-1,12.4
		c0.6,0.8,2.2,0.5,1.9,2.1c-1.6,0.3-4.4,0.3-5.9,0c-0.3-1.6,1.2-1.4,1.6-2.3c0.5-4.7,1.1-9.3,1.7-13.8c-0.6-0.5-1.5-0.7-2.1-1.2
		C156.3,122.9,156.3,122.5,156.3,122.2"/>
	<path class="st0" d="M127.2,136.3c-0.3,2.4,2.6,3.3,4,1.4c0.6-0.9,0.4-2,0.5-3.7C129.2,134.2,127.4,134.4,127.2,136.3 M134.9,137.9
		c0.4,0.6,1.5-0.5,1.7,0.3c0,0.2,0,0.5,0.2,0.5c-0.9,1.1-2.3,1.8-4,2.1c-0.3-0.7-0.7-1.3-0.7-2.3c-1.9,3.4-8.5,2.9-8-1.7
		c0.3-3.2,4-4.1,7.7-4.4c0.4-3.1-1.4-4.9-4.2-3.8c-0.8,0.9-0.3,3-2.4,2.6v-3.8c2.6-0.7,6.3-1.3,8.2,0
		C136.1,129.3,133.9,134.2,134.9,137.9"/>
	<path class="st0" d="M146.9,127.1c-0.1,1.2,0.2,2.9-0.2,3.8c-1.8,0.4-1.5-1.3-1.9-2.3c-0.8-0.2-2.2-0.3-3,0
		c-2.4,3.4,4.2,3.7,5.6,5.9c2.9,4.5-4,7.9-9.1,5.8c0.1-1.3-0.2-3,0.2-4c1.8-0.4,1.7,1.2,2.1,2.3c1.2,0.4,3.7,0.8,4.2-0.5
		c1.1-2.9-5-3.8-5.9-5.2C136.2,128.6,141.9,125.3,146.9,127.1"/>
	<path class="st0" d="M183.9,132.1h5.4C190,127.3,183.3,127.6,183.9,132.1 M192.5,133.7h-8.6c0,2.1,0.2,3.5,1.4,4.4
		c2,1.4,4.9,0.2,6.8-0.2c0.8,1.9-1.9,2.7-3.8,3c-6.9,0.9-10-6.6-6.5-11.7C184.9,124.6,194,126.3,192.5,133.7"/>
	<path class="st0" d="M207.3,129.1c1-1.9,5.4-3.6,7.7-1.6c2.4,2.1,1,6.8,1.4,11c0.6,0.6,2,0.3,1.7,1.7c-1.5,0.7-4.9,0.4-6.6,0.2
		c-0.2-1.4,0.9-1.4,1.7-1.7c-0.4-3.5,1.3-9.3-1.7-10c-4.2-0.9-4.2,5.1-4,9.6c0.4,0.8,2,0.5,1.7,1.9c-1.5,0.7-5,0.4-6.8,0.2
		c-0.3-1.7,1.3-1.4,2.1-1.9v-9.4c-0.4-0.9-2.5,0-2.1-1.6c1-0.9,3.2-0.6,5.1-0.7C207.4,127.6,207.7,128.7,207.3,129.1"/>
	<path class="st0" d="M255.7,143.6c0.5,2.8,8,2.9,7.3-1c-0.3-1.6-3.3-2.4-5.8-1.6C256.2,141.4,255.4,141.9,255.7,143.6 M260.9,134.2
		c2.3-1.9,0-6.2-2.4-5.8C253.8,129.2,257.6,137.1,260.9,134.2 M259.9,147.5h-2.8c-4.6,0.4-5.8-5.8-1.7-7c-2.2-0.5-1.8-4.2,0.2-4.7
		c-2.6-1.1-2.6-5.7-0.9-7.5c2.4-2.5,7.2-1.2,11.2-1.4v1.9c-0.6-0.1-1.1-0.3-1.9-0.2c2.5,3.8-1.2,9.2-6.8,7.5c-2.1,2.7,2.5,2,4.9,2.3
		C269.3,139.3,265.4,147.7,259.9,147.5"/>
	<path class="st0" d="M276.5,127.1c-0.1,1.2,0.2,2.9-0.2,3.8c-1.7,0.3-1.6-1.2-1.9-2.3c-1-0.2-2.8-0.4-3.3,0.3
		c-1.3,4.4,8.2,3.1,6.3,8.9c-0.9,2.7-5.1,3.5-9.4,2.6c0.2-1.3-0.4-3.4,0.3-4.2c1.7-0.3,1.4,1.4,1.9,2.3c1,0.4,3.3,0.7,4-0.2
		c1.5-3.8-5.5-3.4-6.3-6.6C266.9,127.3,271.8,125.9,276.5,127.1"/>
	<path class="st0" d="M292.7,129.3c1-2,5.1-3.7,7.5-1.9c2.6,1.9,1.6,7.4,1.6,11.2c0.7,0.6,2.1,0.3,1.9,1.7c-1.5,0.7-4.9,0.4-6.6,0.2
		c-0.2-1.3,0.8-1.4,1.6-1.7c0-3.3,1.2-9.4-1.7-10c-1.5-0.3-3.2,0.9-3.7,2.6c-0.5,1.6-0.6,5.5-0.2,6.8c0.4,1.2,1.8,0.7,1.7,1.9
		c-1.1,1.1-4.8,0.4-6.5,0.3c-0.3-1.6,1.4-1.2,1.7-2.1c-0.4-3.6,1.1-9.1-1.9-9.6c-4.1-0.7-3.8,5.1-3.7,9.6c0.2,0.9,1.8,0.5,1.6,1.9
		c-1.5,0.7-5,0.4-6.8,0.2c-0.3-1.6,1.3-1.4,2.1-1.9v-9.4c-0.3-0.9-2.3,0-2.1-1.4c0.7-1.3,3.2-0.7,5.1-0.9v2.3
		C285.3,126.2,292.1,125.6,292.7,129.3"/>
	<path class="st0" d="M308.2,132.1h5.4C314.4,127.1,307.7,127.7,308.2,132.1 M317,133.7h-8.7c-0.8,5.2,4.8,6,8.2,4
		c1.1,2.3-3.2,3.5-6.3,3.1c-1.3-0.2-2.8-0.9-3.3-1.4c-5.5-5,1-16.8,8-11.9C316.4,128.7,316.9,130.5,317,133.7"/>
	<path class="st0" d="M372.7,129.5c1.1-3.1,6.4-3.8,8.2-1.2c1.7,2.5,0.6,6.6,0.7,10.1c0.4,0.9,2.2,0.3,1.9,1.9
		c-1.5,0.7-4.9,0.4-6.6,0.2c-0.2-1.5,1.3-1.3,1.7-2.1c-0.3-3.9,1-9-1.9-9.6c-1.5-0.3-3.3,1-3.7,2.8c-0.3,1.2-0.6,5.3,0,6.8
		c0.4,1,1.5,0.4,1.6,1.9c-1.4,0.6-5.1,0.6-6.5,0c-0.1-1.3,1.2-1.1,1.7-1.7c-0.4-3.6,1.2-9.3-1.9-9.8c-4.1-0.6-3.9,5-3.7,9.6
		c0.2,0.9,1.9,0.5,1.6,1.9c-1.5,0.7-5,0.4-6.8,0.2c-0.2-1.5,1-1.5,2.1-1.7v-9.6c-0.3-0.8-1.9-0.2-2.1-1c0-1.8,3.4-1,5.2-1.2
		c-0.2,0.5-0.2,1.3-0.2,2.1C365,126.6,372.2,125.4,372.7,129.5"/>
	<path class="st0" d="M199.3,126.9v11.7c0.7,0.6,2.1,0.3,1.9,1.7c-1.6,0.6-5.6,0.6-7.2,0c-0.1-1.3,1.1-1.3,2.1-1.6v-9.6
		c-0.3-0.8-2-0.2-2.1-1.2C194.6,126.4,197.4,127.1,199.3,126.9"/>
	<path class="st0" d="M339.5,126.9v11.7c0.6,0.6,2,0.3,1.7,1.7c-1.6,0.7-5.1,0.4-7,0.2c-0.3-1.7,1.3-1.4,2.1-1.9v-9.4
		c-0.3-0.8-1.9-0.2-2.1-1C334.3,126.3,337.6,127.1,339.5,126.9"/>
	<path class="st0" d="M347.4,126.9c0.2,3.5-1.5,11.1,1.6,11.9c4.2,1,4.3-5.1,4-9.6c-0.2-0.9-2.2-0.1-1.9-1.4
		c0.6-1.3,3.1-0.7,4.9-0.9v11.5c0.3,0.7,1.7,0.3,1.9,1c-0.1,2-3.1,0.9-4.9,1.2c-0.1-0.9,0-1.6,0.2-2.3c-1.1,2.5-6.7,3.6-8.4,0.7
		c-1.5-2.7-0.3-6.3-0.7-10.1c-0.4-0.6-2,0-1.7-1.2C343,126.5,345.5,127,347.4,126.9"/>
	<path class="st0" d="M249.9,138.6c0.6,0.6,2,0.3,1.7,1.7c-1.5,0.7-4.9,0.4-6.6,0.2c-0.2-1.4,0.9-1.4,1.7-1.7
		c-0.2-3.4,1.2-9.3-1.7-10c-4.3-1-4.1,5.1-3.8,9.6c0.2,0.9,1.9,0.4,1.6,1.9c-1.5,0.7-5,0.4-6.8,0.2c-0.3-1.6,1.3-1.4,2.1-1.9v-9.4
		c-0.4-0.9-2.5,0-2.1-1.6c1-0.9,3.2-0.6,5.1-0.7v1.9c1.2-1.6,5.1-3.1,7.3-1.4C251,129.4,249.6,134.3,249.9,138.6"/>
	<path class="st0" d="M224.1,126.9c0.5,3.8-1.6,10.9,1.6,11.9c4.5,1.3,4.3-5.3,4-9.8c-0.4-0.6-1.7-0.1-1.9-0.9
		c0.3-1.8,3.2-1,5.1-1.2v11.7c0.4,0.6,1.7,0.1,1.9,0.9c-0.1,2-3.1,0.9-4.9,1.2v-1.9c-1.1,1.6-5.1,3.1-7.3,1.4
		c-2.7-2.1-1.3-6.9-1.6-11.2c-0.3-0.6-1.8,0-1.7-1C219.6,126.3,222.3,127.1,224.1,126.9"/>
</g>
</svg>
