<?xml version="1.0" encoding="utf-8"?>
<!-- Generator: Adobe Illustrator 19.2.1, SVG Export Plug-In . SVG Version: 6.00 Build 0)  -->
<svg version="1.1" id="Ebene_1" xmlns="http://www.w3.org/2000/svg" xmlns:xlink="http://www.w3.org/1999/xlink" x="0px" y="0px"
	 viewBox="0 0 580 200" style="enable-background:new 0 0 580 200;" xml:space="preserve">
<style type="text/css">
	.st0{fill:#FFFFFF;}
</style>
<g>
	<path class="st0" d="M428,70.2l5.9,16h-12.4L428,70.2z M426.4,61.5l-20.3,42.4h8.1l5.1-12.7h16.4l4.7,12.7h10.2l-17.4-42.4H426.4z
		 M345.7,61.5v5.6h23.7l-25.2,33v3.8h36.5l1-5.7h-25.3l25.1-33.1v-3.7H345.7z M296.1,103.9h9.3V61.5h-9.3V103.9z M172.6,23.4
		c-23.8-0.2-36.1,8.8-45.3,19c10.2-9.1,24-16.6,42-16.6c29.9,0,47.8,27.1,48.4,48.7c0.2,9-0.2,10.1,7.5,19.5
		c7.8,9.5,12,14.4,0.6,15.1c-2.3,0.1-2.8,1.4-2.7,4.3c0.2,4.5-1.8,4.5-4.1,5c-1,0.2-0.7,1,0.4,1.3c1.4,0.4,3.3,0.9,3.2,2
		c-0.2,2-1.1,0.9-3.4,3.4c-1.7,1.8-1.8,4.1-0.4,4.7c1.3,0.7,7.1,12.4-3.8,13.7c-8.4,1-10.1,0.3-18.9,2.1c-4.6,0.9-6.2,6.5-7.6,9.9
		c-1,2.3-9.3,23.1-9.3,23.1h3.7c0,0,7.8-15.4,12.6-25.5c1.5-3.2,2.4-3.7,3.4-3.8c9-1.1,11.4-1.1,19.9-2.1c7.8-0.9,10.2-6.2,9.8-11.1
		c-0.3-3.4-1.1-6-2.1-7.1c-0.8-0.8-1.3-1.4-0.9-1.6c2.8-1.5,3.9-3.1,4.1-5.3c0.1-1.3-0.2-2.5-0.8-3.2c1-1.9,1.3-3.7,1.2-6.1
		c2.6-0.2,4.9-1,6.8-1.8c2.9-1.3,4-2.1,3.4-4.3c-0.6-2-1.8-4.1-3.1-5.9c-1.4-1.9-3.1-4-5.2-6.4c-3.9-4.8-5.3-6.9-5.9-8.7
		c-0.3-0.9-0.5-1.8-0.6-3.1c-0.1-1.5-0.1-3.2-0.2-5.3C224.8,54,205.1,23.7,172.6,23.4"/>
</g>
</svg>
