<?xml version="1.0" encoding="utf-8"?>
<!-- Generator: Adobe Illustrator 19.2.1, SVG Export Plug-In . SVG Version: 6.00 Build 0)  -->
<svg version="1.1" id="Ebene_1" xmlns="http://www.w3.org/2000/svg" xmlns:xlink="http://www.w3.org/1999/xlink" x="0px" y="0px"
	 viewBox="0 0 580 200" style="enable-background:new 0 0 580 200;" xml:space="preserve">
<style type="text/css">
	.st0{fill:#FFFFFF;}
</style>
<polygon class="st0" points="222,164.8 212.4,150.5 212.4,164.8 210,164.8 210,125.5 212.4,125.5 212.4,150.4 221.6,138.1 
	224.5,138.1 215.1,150.2 225.3,164.8 "/>
<rect x="231" y="125.5" class="st0" width="2.4" height="39.3"/>
<g>
	<path class="st0" d="M245.5,130.5c0-0.4-0.1-0.8-0.2-1.1c-0.2-0.3-0.4-0.6-0.6-0.8c-0.3-0.2-0.6-0.3-0.9-0.3
		c-0.3,0-0.6,0.1-0.9,0.3c-0.3,0.2-0.5,0.4-0.6,0.8c-0.2,0.3-0.2,0.7-0.2,1.1c0,0.4,0.1,0.8,0.2,1.1c0.2,0.3,0.4,0.6,0.6,0.8
		c0.3,0.2,0.6,0.3,0.9,0.3c0.3,0,0.6-0.1,0.9-0.3c0.3-0.2,0.5-0.4,0.6-0.8C245.4,131.3,245.5,130.9,245.5,130.5 M244.9,138.1h-2.4
		v26.8h2.4V138.1z"/>
	<path class="st0" d="M270.2,164.8v-18.6c0-1.2-0.1-2.3-0.3-3.4c-0.2-1-0.6-2-1.1-2.7c-0.5-0.8-1.2-1.4-2.1-1.8
		c-0.9-0.4-2-0.7-3.3-0.7c-1.3,0-2.6,0.3-3.6,0.9c-1.1,0.6-2,1.4-2.8,2.4c-0.8,1-1.4,2.3-1.8,3.7l-0.1-0.1c0.1-0.6,0.2-1.3,0.2-2
		c0.1-0.7,0.1-1.5,0.1-2.3c0-0.8,0-1.5,0-2.1H253v26.8h2.4V152c0-1.8,0.2-3.4,0.6-4.9c0.4-1.5,0.9-2.7,1.5-3.8
		c0.7-1.1,1.5-1.9,2.4-2.5c0.9-0.6,1.9-0.9,3.1-0.9c1.2,0,2.2,0.3,2.9,0.9c0.7,0.6,1.2,1.4,1.5,2.5c0.3,1.1,0.4,2.5,0.4,4v17.4
		H270.2z"/>
	<path class="st0" d="M281.3,130.5c0-0.4-0.1-0.8-0.2-1.1c-0.2-0.3-0.4-0.6-0.6-0.8c-0.3-0.2-0.6-0.3-0.9-0.3
		c-0.3,0-0.6,0.1-0.9,0.3c-0.3,0.2-0.5,0.4-0.6,0.8c-0.2,0.3-0.2,0.7-0.2,1.1c0,0.4,0.1,0.8,0.2,1.1c0.2,0.3,0.4,0.6,0.6,0.8
		c0.3,0.2,0.6,0.3,0.9,0.3c0.3,0,0.6-0.1,0.9-0.3c0.3-0.2,0.5-0.4,0.6-0.8C281.3,131.3,281.3,130.9,281.3,130.5 M280.7,138.1h-2.4
		v26.8h2.4V138.1z"/>
</g>
<polygon class="st0" points="305,164.8 294.9,150.2 304.3,138.1 301.4,138.1 292.2,150.4 292.2,125.5 289.8,125.5 289.8,164.8 
	292.2,164.8 292.2,150.5 301.8,164.8 "/>
<g>
	<path class="st0" d="M328.2,164.8v-26.8h-2.4v12.8c0,1.8-0.2,3.4-0.6,4.9c-0.4,1.5-0.9,2.7-1.5,3.8c-0.7,1.1-1.5,1.9-2.4,2.5
		c-0.9,0.6-1.9,0.9-3.1,0.9c-1.2,0-2.2-0.3-2.9-0.9c-0.7-0.6-1.2-1.4-1.5-2.5c-0.3-1.1-0.4-2.5-0.4-4v-17.4h-2.4v18.6
		c0,1.2,0.1,2.3,0.3,3.4c0.2,1,0.6,2,1.1,2.7c0.5,0.8,1.2,1.4,2.1,1.8c0.9,0.4,2,0.7,3.3,0.7c1.3,0,2.6-0.3,3.6-0.9
		c1.1-0.6,2-1.4,2.8-2.4c0.8-1,1.4-2.3,1.8-3.7l0.1,0.1c-0.1,0.6-0.2,1.2-0.2,2c-0.1,0.8-0.1,1.5-0.1,2.3c0,0.8,0,1.5,0,2.1H328.2z"
		/>
	<path class="st0" d="M367.6,164.8v-18.6c0-2-0.3-3.6-0.8-4.9c-0.5-1.3-1.3-2.2-2.3-2.8c-1-0.6-2.2-0.9-3.6-0.9
		c-1,0-1.9,0.2-2.6,0.5c-0.8,0.3-1.5,0.7-2.1,1.2c-0.6,0.5-1.1,1.1-1.6,1.7c-0.4,0.6-0.8,1.2-1.1,1.8c-0.3,0.6-0.5,1.2-0.7,1.7
		c0-0.4,0-0.9-0.1-1.4c-0.1-0.6-0.2-1.2-0.5-1.8c-0.2-0.6-0.6-1.2-1.1-1.8c-0.5-0.5-1.1-1-1.8-1.3c-0.8-0.3-1.7-0.5-2.8-0.5
		c-1.3,0-2.5,0.3-3.5,0.9c-1.1,0.6-2,1.4-2.8,2.4c-0.8,1-1.4,2.3-1.8,3.7l-0.1-0.1c0.1-0.6,0.2-1.3,0.2-2c0.1-0.7,0.1-1.5,0.1-2.3
		c0-0.8,0-1.5,0-2.1h-2.5v26.8h2.4v-12.7c0-1.8,0.2-3.5,0.6-5c0.4-1.5,0.9-2.8,1.6-3.9c0.7-1.1,1.5-1.9,2.4-2.5
		c0.9-0.6,1.9-0.9,2.9-0.9c1,0,1.8,0.2,2.4,0.6c0.6,0.4,1.1,0.9,1.4,1.6c0.3,0.7,0.5,1.5,0.7,2.4c0.1,0.9,0.2,1.8,0.2,2.9v17.5h2.4
		v-12.7c0-1.9,0.2-3.7,0.6-5.2c0.4-1.5,1-2.8,1.7-3.8c0.7-1,1.5-1.8,2.4-2.4c0.9-0.5,1.8-0.8,2.8-0.8c1.2,0,2.2,0.3,2.8,0.9
		c0.7,0.6,1.1,1.5,1.4,2.6c0.3,1.1,0.4,2.4,0.4,3.9v17.4H367.6z"/>
	<path class="st0" d="M227.2,118.1V91.3h-2.4v12.8c0,1.8-0.2,3.4-0.6,4.9c-0.4,1.5-0.9,2.7-1.5,3.8c-0.7,1.1-1.5,1.9-2.4,2.5
		c-0.9,0.6-1.9,0.9-3.1,0.9c-1.2,0-2.2-0.3-2.9-0.9c-0.7-0.6-1.2-1.4-1.5-2.5c-0.3-1.1-0.4-2.5-0.4-4V91.3H210v18.6
		c0,1.2,0.1,2.3,0.3,3.4c0.2,1,0.6,2,1.1,2.7c0.5,0.8,1.2,1.4,2.1,1.8c0.9,0.4,2,0.7,3.3,0.7c1.3,0,2.6-0.3,3.6-0.9
		c1.1-0.6,2-1.4,2.8-2.4c0.8-1,1.4-2.3,1.8-3.7l0.1,0.1c-0.1,0.6-0.2,1.2-0.2,2c-0.1,0.8-0.1,1.5-0.1,2.3c0,0.8,0,1.5,0,2.1H227.2z"
		/>
	<path class="st0" d="M252.5,118.1V99.4c0-1.2-0.1-2.3-0.3-3.4c-0.2-1-0.6-2-1.1-2.7c-0.5-0.8-1.2-1.4-2.1-1.8
		c-0.9-0.4-2-0.7-3.3-0.7c-1.3,0-2.6,0.3-3.6,0.9c-1.1,0.6-2,1.4-2.8,2.4c-0.8,1-1.4,2.3-1.8,3.7l-0.1-0.1c0.1-0.6,0.2-1.3,0.2-2
		c0.1-0.7,0.1-1.5,0.1-2.3c0-0.8,0-1.5,0-2.1h-2.5v26.8h2.4v-12.8c0-1.8,0.2-3.4,0.6-4.9c0.4-1.5,0.9-2.7,1.5-3.8
		c0.7-1.1,1.5-1.9,2.4-2.5c0.9-0.6,1.9-0.9,3.1-0.9c1.2,0,2.2,0.3,2.9,0.9c0.7,0.6,1.2,1.4,1.5,2.5c0.3,1.1,0.4,2.5,0.4,4v17.4
		H252.5z"/>
	<path class="st0" d="M263.7,84.3c0-0.4-0.1-0.8-0.2-1.1c-0.2-0.3-0.4-0.6-0.6-0.8c-0.3-0.2-0.6-0.3-0.9-0.3c-0.3,0-0.6,0.1-0.9,0.3
		c-0.3,0.2-0.5,0.4-0.6,0.8c-0.2,0.3-0.2,0.7-0.2,1.1c0,0.4,0.1,0.8,0.2,1.1c0.2,0.3,0.4,0.6,0.6,0.8c0.3,0.2,0.6,0.3,0.9,0.3
		c0.3,0,0.6-0.1,0.9-0.3c0.3-0.2,0.5-0.4,0.6-0.8C263.6,85.1,263.7,84.7,263.7,84.3 M263,91.9h-2.4v26.8h2.4V91.9z"/>
	<path class="st0" d="M288.9,91.3h-2.7l-6.1,19.9c-0.2,0.7-0.4,1.4-0.6,2c-0.2,0.7-0.4,1.4-0.6,2h0c-0.2-0.7-0.4-1.4-0.5-2.1
		c-0.2-0.7-0.4-1.4-0.6-2.2l-5.9-19.7H269l8.6,26.8h2.5L288.9,91.3z"/>
	<path class="st0" d="M309.2,101.5c0-1.4-0.2-2.8-0.5-4c-0.3-1.3-0.8-2.4-1.5-3.4c-0.7-1-1.6-1.8-2.6-2.3c-1.1-0.6-2.4-0.9-3.9-0.9
		c-1.5,0-2.8,0.4-4,1c-1.2,0.7-2.2,1.7-3,2.9c-0.8,1.2-1.5,2.7-1.9,4.4c-0.4,1.7-0.7,3.5-0.7,5.5c0,4.7,0.9,8.1,2.6,10.4
		c1.7,2.3,4.2,3.4,7.6,3.4c1.4,0,2.7-0.1,3.9-0.4c1.2-0.3,2.3-0.7,3.2-1.1l-0.2-2.6c-0.5,0.3-1.2,0.6-1.9,0.9
		c-0.7,0.3-1.5,0.5-2.2,0.6c-0.8,0.2-1.6,0.2-2.4,0.2c-1.8,0-3.3-0.4-4.5-1.3c-1.2-0.9-2.1-2.3-2.7-4.2c-0.6-1.9-0.8-4.4-0.7-7.5
		h15.5c0-0.3,0-0.7,0-0.9C309.2,101.9,309.2,101.7,309.2,101.5 M306.5,100.7h-12.7c0.2-1.6,0.6-2.9,1.2-4c0.6-1.1,1.3-2,2.3-2.7
		c0.9-0.6,2-0.9,3.1-1c1.3,0,2.4,0.3,3.3,1c0.9,0.6,1.6,1.5,2.1,2.7C306.3,97.9,306.6,99.2,306.5,100.7"/>
	<path class="st0" d="M326.3,90.9c-1.3-0.2-2.4-0.1-3.3,0.3c-1,0.4-1.7,1-2.4,1.7c-0.7,0.8-1.2,1.7-1.6,2.7c-0.4,1-0.7,2-0.9,3
		l-0.1-0.1c0.1-0.8,0.2-1.7,0.3-2.6c0.1-0.9,0.2-1.7,0.2-2.5c0-0.8,0.1-1.5,0.1-2.2h-2.5v26.8h2.4v-10.6c0-3.2,0.3-5.9,0.8-8.1
		c0.6-2.2,1.4-3.7,2.6-4.7c1.2-1,2.6-1.3,4.4-1L326.3,90.9z"/>
	<path class="st0" d="M344.4,110.3c0-1.3-0.2-2.4-0.6-3.2c-0.4-0.8-1-1.5-1.7-2c-0.7-0.5-1.5-0.9-2.3-1.2c-0.8-0.3-1.7-0.6-2.5-0.9
		c-0.8-0.3-1.6-0.6-2.3-1c-0.7-0.4-1.2-0.9-1.7-1.5c-0.4-0.6-0.6-1.5-0.6-2.5c0-1,0.2-1.8,0.6-2.6c0.4-0.7,1-1.3,1.9-1.7
		c0.8-0.4,1.9-0.6,3.1-0.6c0.8,0,1.6,0.1,2.4,0.3c0.8,0.2,1.6,0.4,2.4,0.7l0.1-2.6c-0.7-0.2-1.5-0.3-2.3-0.5
		c-0.8-0.1-1.5-0.2-2.3-0.2c-1.8,0-3.3,0.3-4.6,1c-1.3,0.6-2.2,1.5-2.9,2.7c-0.7,1.1-1,2.4-1,3.9c0,1.4,0.2,2.5,0.6,3.4
		c0.4,0.9,1,1.6,1.7,2.1c0.7,0.5,1.5,0.9,2.3,1.2c0.8,0.3,1.7,0.6,2.5,0.9c0.8,0.3,1.6,0.6,2.3,0.9c0.7,0.4,1.3,0.8,1.7,1.4
		c0.4,0.6,0.6,1.4,0.6,2.4c0,1.1-0.3,2-0.8,2.8c-0.5,0.8-1.3,1.4-2.2,1.8c-0.9,0.4-2,0.6-3.3,0.6c-0.9,0-1.8-0.1-2.7-0.3
		c-0.9-0.2-1.7-0.4-2.4-0.7l-0.1,2.9c0.7,0.2,1.4,0.3,2.3,0.4c0.8,0.1,1.7,0.1,2.5,0.1c1.4,0,2.7-0.2,3.8-0.7c1.1-0.4,2.1-1,2.9-1.8
		c0.8-0.8,1.4-1.6,1.8-2.6C344.2,112.4,344.4,111.4,344.4,110.3"/>
	<path class="st0" d="M354.7,83.8c0-0.4-0.1-0.8-0.2-1.1c-0.2-0.3-0.4-0.6-0.6-0.8c-0.3-0.2-0.6-0.3-0.9-0.3c-0.3,0-0.6,0.1-0.9,0.3
		c-0.3,0.2-0.5,0.4-0.6,0.8c-0.2,0.3-0.2,0.7-0.2,1.1c0,0.4,0.1,0.8,0.2,1.1c0.2,0.3,0.4,0.6,0.6,0.8c0.3,0.2,0.6,0.3,0.9,0.3
		c0.3,0,0.6-0.1,0.9-0.3c0.3-0.2,0.5-0.4,0.6-0.8C354.6,84.5,354.7,84.2,354.7,83.8 M354.1,91.3h-2.4v26.8h2.4V91.3z"/>
	<path class="st0" d="M374.3,118v-2.6c-0.5,0.2-1,0.3-1.6,0.4c-0.6,0.1-1.2,0.1-1.8,0.1c-0.7,0-1.3-0.1-1.8-0.3
		c-0.5-0.2-0.9-0.5-1.1-1c-0.3-0.5-0.5-1.2-0.6-2.1c-0.1-0.9-0.2-2-0.2-3.3V93.6h7.1v-2.3h-7.1v-10l-2.4,0.8v9.2h-5.3v2.3h5.3v17.2
		c0,1.8,0.2,3.2,0.5,4.3c0.3,1.1,0.9,2,1.7,2.5c0.8,0.6,1.9,0.8,3.3,0.8c0.7,0,1.4-0.1,2.1-0.1C373.1,118.2,373.7,118.1,374.3,118"
		/>
	<path class="st0" d="M393.8,82.5c0-0.6-0.2-1.1-0.5-1.5c-0.3-0.4-0.7-0.6-1.3-0.6c-0.5,0-0.9,0.2-1.3,0.6c-0.3,0.4-0.5,0.9-0.5,1.5
		c0,0.6,0.2,1.1,0.5,1.5c0.3,0.4,0.7,0.6,1.3,0.6c0.5,0,0.9-0.2,1.3-0.6C393.6,83.7,393.7,83.1,393.8,82.5 M385.5,82.5
		c0-0.6-0.2-1.1-0.5-1.5c-0.3-0.4-0.7-0.6-1.3-0.6c-0.5,0-0.9,0.2-1.3,0.6c-0.3,0.4-0.5,0.9-0.5,1.5c0,0.6,0.2,1.1,0.5,1.5
		c0.3,0.4,0.7,0.6,1.3,0.6c0.5,0,0.9-0.2,1.3-0.6C385.3,83.7,385.5,83.1,385.5,82.5 M395.5,118.1c0-0.8,0-1.7,0-2.7c0-1,0-1.9,0-2.9
		c0-1,0-2,0-2.9V99.4c0-1.2-0.1-2.3-0.3-3.4c-0.2-1-0.6-1.9-1.2-2.7c-0.6-0.8-1.3-1.4-2.3-1.8c-1-0.4-2.1-0.6-3.6-0.7
		c-1.5,0-2.9,0.2-4.2,0.6c-1.3,0.4-2.4,0.9-3.5,1.5l0.3,2.7c0.7-0.5,1.4-1,2.2-1.3c0.8-0.4,1.6-0.6,2.4-0.8c0.8-0.2,1.6-0.3,2.3-0.3
		c1.4,0,2.5,0.3,3.3,0.8c0.8,0.6,1.4,1.4,1.7,2.4c0.3,1.1,0.5,2.4,0.5,3.9v2.5c-2.3,0-4.3,0.2-6.1,0.7c-1.7,0.5-3.2,1.1-4.4,2
		c-1.2,0.8-2.1,1.8-2.6,3c-0.6,1.1-0.9,2.3-0.9,3.7c0,1.4,0.3,2.6,0.8,3.5c0.5,0.9,1.3,1.6,2.2,2.1c0.9,0.5,1.9,0.7,3.1,0.7
		c1.3,0,2.6-0.3,3.6-0.9c1.1-0.6,2-1.4,2.8-2.4c0.8-1,1.3-2.1,1.7-3.3l0.1,0.1c-0.1,0.8-0.2,1.7-0.2,2.8c0,1-0.1,2.1-0.1,3.3H395.5z
		 M393,105.6c0,1.3-0.2,2.6-0.5,3.8c-0.3,1.2-0.8,2.4-1.5,3.4c-0.6,1-1.4,1.8-2.3,2.4c-0.9,0.6-1.9,0.9-3,0.9
		c-0.8,0-1.6-0.2-2.2-0.5c-0.6-0.4-1.1-0.9-1.4-1.5c-0.3-0.7-0.5-1.5-0.5-2.4c0-0.6,0.1-1.1,0.3-1.7c0.2-0.6,0.5-1.2,1-1.7
		c0.5-0.6,1.2-1,2-1.5c0.9-0.4,2-0.8,3.3-1c1.3-0.3,2.9-0.4,4.8-0.4V105.6z"/>
	<path class="st0" d="M413.7,118v-2.6c-0.5,0.2-1,0.3-1.6,0.4c-0.6,0.1-1.2,0.1-1.8,0.1c-0.7,0-1.3-0.1-1.8-0.3
		c-0.5-0.2-0.9-0.5-1.1-1c-0.3-0.5-0.5-1.2-0.6-2.1c-0.1-0.9-0.2-2-0.2-3.3V93.6h7.1v-2.3h-7.1v-10l-2.4,0.8v9.2h-5.3v2.3h5.3v17.2
		c0,1.8,0.1,3.2,0.5,4.3c0.3,1.1,0.9,2,1.7,2.5c0.8,0.6,1.9,0.8,3.3,0.8c0.7,0,1.4-0.1,2.1-0.1C412.5,118.2,413.2,118.1,413.7,118"
		/>
	<path class="st0" d="M432.4,110.3c0-1.3-0.2-2.4-0.6-3.2c-0.4-0.8-1-1.5-1.7-2c-0.7-0.5-1.5-0.9-2.3-1.2c-0.8-0.3-1.7-0.6-2.5-0.9
		c-0.8-0.3-1.6-0.6-2.3-1c-0.7-0.4-1.3-0.9-1.7-1.5c-0.4-0.6-0.6-1.5-0.6-2.5c0-1,0.2-1.8,0.6-2.6c0.4-0.7,1-1.3,1.9-1.7
		c0.8-0.4,1.9-0.6,3.1-0.6c0.8,0,1.6,0.1,2.4,0.3c0.8,0.2,1.6,0.4,2.4,0.7l0.1-2.6c-0.7-0.2-1.5-0.3-2.3-0.5
		c-0.8-0.1-1.5-0.2-2.3-0.2c-1.8,0-3.3,0.3-4.6,1c-1.3,0.6-2.2,1.5-2.9,2.7c-0.7,1.1-1,2.4-1,3.9c0,1.4,0.2,2.5,0.6,3.4
		c0.4,0.9,1,1.6,1.7,2.1c0.7,0.5,1.5,0.9,2.3,1.2c0.8,0.3,1.7,0.6,2.5,0.9c0.8,0.3,1.6,0.6,2.3,0.9c0.7,0.4,1.3,0.8,1.7,1.4
		c0.4,0.6,0.6,1.4,0.6,2.4c0,1.1-0.3,2-0.8,2.8c-0.5,0.8-1.3,1.4-2.2,1.8c-0.9,0.4-2,0.6-3.3,0.6c-0.9,0-1.8-0.1-2.7-0.3
		c-0.9-0.2-1.7-0.4-2.4-0.7l-0.1,2.9c0.7,0.2,1.4,0.3,2.3,0.4c0.8,0.1,1.7,0.1,2.5,0.1c1.4,0,2.7-0.2,3.8-0.7c1.1-0.4,2.1-1,2.9-1.8
		c0.8-0.8,1.4-1.6,1.8-2.6C432.2,112.4,432.4,111.4,432.4,110.3"/>
	<path class="st0" d="M395.3,150.2c0-2.7-0.3-5-1-6.9c-0.6-1.9-1.6-3.3-2.8-4.3c-1.2-1-2.7-1.4-4.5-1.4c-1.1,0-2.2,0.2-3.2,0.7
		c-1,0.5-1.8,1.1-2.5,2c-0.7,0.9-1.3,2-1.7,3.2l-0.1-0.1c0.1-0.5,0.2-1,0.2-1.6c0.1-0.6,0.1-1.2,0.1-1.8c0-0.6,0-1.2,0-1.7v-13h-4.1
		v38.6c0.8,0.3,1.6,0.5,2.4,0.6c0.8,0.2,1.6,0.3,2.5,0.4c0.9,0.1,1.8,0.1,2.9,0.1c2.4,0,4.5-0.6,6.3-1.8c1.7-1.2,3.1-2.9,4-5.1
		C394.8,156.1,395.3,153.4,395.3,150.2 M391,150.7c0,2.6-0.3,4.6-0.9,6.2c-0.6,1.6-1.4,2.7-2.5,3.5c-1.1,0.7-2.3,1.1-3.8,1.1
		c-0.8,0-1.5-0.1-2.1-0.2c-0.6-0.1-1.3-0.3-1.8-0.5v-8.9c0-0.9,0.1-1.9,0.2-2.8c0.2-1,0.4-1.9,0.7-2.8c0.3-0.9,0.7-1.7,1.2-2.4
		c0.5-0.7,1.1-1.3,1.7-1.7c0.7-0.4,1.4-0.6,2.2-0.6c1.1,0,2.1,0.4,2.8,1.1c0.7,0.7,1.3,1.7,1.6,3.1C390.9,147.1,391,148.7,391,150.7
		"/>
	<path class="st0" d="M420.6,151c0-2.4-0.3-4.5-0.8-6.2c-0.5-1.7-1.2-3.1-2.1-4.2c-0.9-1.1-2-1.8-3.2-2.4c-1.2-0.5-2.6-0.7-4-0.7
		c-1.7,0-3.2,0.4-4.6,1.1c-1.3,0.7-2.5,1.7-3.4,3c-1,1.3-1.7,2.8-2.2,4.5c-0.5,1.7-0.7,3.5-0.8,5.5c0,3.1,0.4,5.7,1.3,7.7
		c0.8,2,2,3.5,3.5,4.5c1.5,1,3.3,1.4,5.3,1.4c1.7,0,3.2-0.4,4.5-1.1c1.4-0.7,2.5-1.7,3.5-3c1-1.3,1.7-2.8,2.2-4.5
		C420.3,154.9,420.6,153.1,420.6,151 M416.3,151.3c0,1.7-0.2,3.2-0.5,4.4c-0.3,1.3-0.8,2.3-1.4,3.1c-0.6,0.8-1.2,1.4-2,1.8
		c-0.8,0.4-1.5,0.6-2.4,0.6c-2.1,0-3.6-0.9-4.7-2.6c-1.1-1.7-1.6-4.2-1.6-7.4c0-1.7,0.2-3.1,0.5-4.3c0.3-1.2,0.8-2.2,1.4-3
		c0.6-0.8,1.3-1.4,2-1.7c0.8-0.4,1.5-0.6,2.4-0.6c1.4,0,2.5,0.4,3.5,1.1c0.9,0.8,1.6,1.8,2.1,3.3
		C416.1,147.5,416.3,149.3,416.3,151.3"/>
	<path class="st0" d="M444.7,164.9v-18.7c0-1.2-0.1-2.3-0.3-3.3c-0.2-1-0.6-1.9-1.1-2.7c-0.5-0.8-1.2-1.4-2.1-1.8
		c-0.9-0.4-2-0.7-3.2-0.7c-1.3,0-2.4,0.3-3.5,0.8c-1,0.5-1.9,1.2-2.7,2.2c-0.7,0.9-1.3,2-1.8,3.3l-0.1-0.1c0.1-0.5,0.2-1.1,0.2-1.8
		c0.1-0.7,0.1-1.3,0.1-2c0-0.7,0-1.3,0-1.8h-3.9v26.8h4.1V152c0-1.5,0.2-2.9,0.5-4.1c0.3-1.3,0.8-2.4,1.3-3.3c0.6-0.9,1.2-1.7,2-2.2
		c0.8-0.5,1.6-0.8,2.6-0.8c1,0,1.8,0.2,2.3,0.7c0.6,0.5,1,1.1,1.2,2c0.2,0.9,0.3,2,0.3,3.2v17.3H444.7z"/>
	<path class="st0" d="M469.9,164.9v-18.7c0-1.2-0.1-2.3-0.3-3.3c-0.2-1-0.6-1.9-1.1-2.7c-0.5-0.8-1.2-1.4-2.1-1.8
		c-0.9-0.4-2-0.7-3.2-0.7c-1.3,0-2.4,0.3-3.5,0.8c-1,0.5-1.9,1.2-2.7,2.2c-0.7,0.9-1.3,2-1.8,3.3l-0.1-0.1c0.1-0.5,0.2-1.1,0.2-1.8
		c0.1-0.7,0.1-1.3,0.1-2c0-0.7,0-1.3,0-1.8h-3.9v26.8h4.1V152c0-1.5,0.2-2.9,0.5-4.1c0.3-1.3,0.8-2.4,1.3-3.3c0.6-0.9,1.2-1.7,2-2.2
		c0.8-0.5,1.6-0.8,2.6-0.8c1,0,1.8,0.2,2.3,0.7c0.6,0.5,1,1.1,1.2,2c0.2,0.9,0.3,2,0.3,3.2v17.3H469.9z"/>
	<path class="st0" d="M110.1,104.9c0,11.7,0,20.7,0,32.5c0,12.7,20.6,24.6,60.8,31.7v-64.4C142.4,113.9,110.9,114.4,110.1,104.9"/>
	<path class="st0" d="M138.5,86.9c-8.9,2.7-23.6,9-24.2,15c-0.5,4.8,10,7,24.2,5.4V86.9z"/>
	<path class="st0" d="M140.3,51v56.2c12.8-1.7,24.5-4.8,35.4-10v64.4l15,3.3V31L140.3,51z"/>
</g>
</svg>
