<?xml version="1.0" encoding="utf-8"?>
<!-- Generator: Adobe Illustrator 19.2.1, SVG Export Plug-In . SVG Version: 6.00 Build 0)  -->
<svg version="1.1" id="Ebene_1" xmlns="http://www.w3.org/2000/svg" xmlns:xlink="http://www.w3.org/1999/xlink" x="0px" y="0px"
	 viewBox="0 0 580 200" style="enable-background:new 0 0 580 200;" xml:space="preserve">
<style type="text/css">
	.st0{fill:#FFFFFF;}
</style>
<g>
	<path class="st0" d="M149.2,85.3c10.7-5.6,7.9-15.1,4.1-19.1C161.7,70.5,163.3,85.9,149.2,85.3 M140.1,95.4l-1.5-1l-3.3,2.3l0-0.2
		c0-4.1,4.1-8.9,12-6.9C141.7,90.5,140,92.8,140.1,95.4 M130.2,98c-4.1-6.1-0.4-10.9,2.2-12.4l-0.9-1.1c1.4-0.9,3.9-1.1,5.7-1.1
		c1.9,0,4.2,0.7,5.7,1.6C134.2,84.6,129.8,90.6,130.2,98 M145.4,64.7c1.7-0.2,3.1,0.1,4.4,0.6C146.7,67.2,145,66.8,145.4,64.7
		 M166.5,79.6c0-8.9-6.4-17.2-15.5-18.4c-1.2-0.1-1.6-0.2-2.9-0.2l-0.6,1.9c-0.7-0.1-0.8-0.1-1.5-0.1l-0.7,0l-9.9,3.9l0.7,3.9l7.3,0
		c0.4,0.4,0.6,1.2,0.6,1.9c0,1.1-0.9,1.7-2,1.7h-5.3c0.1,0.7,0.3,1.2,0.2,1.4c-0.1,0.6-3.3,2.6-3.3,2.6s2.6-0.8,3.9-1
		c2.5-0.4,4.1,0.2,5.6,0c1.2-0.2,2.8-1,2.8-1l-1,1.9c2.6-0.5,4.5-2.8,4.5-5.5c0-0.6-0.1-1.3-0.3-1.8c1.1,1,1.3,2.5,1.3,4.2
		c0,3.1-2.4,5.1-5.5,5.1c-3.4,0-5.7-0.5-9.6-0.5c-2.9,0-5.1,0.8-7.1,2.1c0,0-1.2-1.6-3.6-4.7c-2.6-3.3-4.3-6.2-6.3-6.5
		c-2.6-0.3-3.5-0.4-6.5,0c-2,0.2-0.5,5.3-0.5,5.3s0.2-1,0.6-1.5c0.2-0.3,0.6-0.8,0.6-0.8l1,2.2c0.8,1,3.7,0.8,4.3,1.2
		c0.9,0.6,2.2,2.3,3,4.3c1,2.4,1.8,5.9,1.8,5.9s-0.3-0.1-1.1-0.4c-2.1-0.8-4.3-1.2-5.6-0.6c-2.4,1.2-3.2,1.6-5.4,3.5
		c-1.6,1.3,2.3,4.7,2.3,4.7s-0.2-0.9-0.2-1.5c0-0.4,0.1-1,0.1-1l2,1.3c1.2,0.4,2.6-1.7,4.3-1.3c1.4,0.3,2.9,1.6,3.5,2
		c0.3,3.3,1.8,6.3,4.1,8.4c0.7-0.6,2.1-1.5,3.1-1.8c1.3-0.5,15.6-1.6,15.6-1.6l-1.6-2.8l13.8-4.2v3.7c4.2-3.4,6.8-8.5,6.8-14.3
		c0-0.3-0.1-1.1-0.1-1.7l2.2,1.4C166.4,80.6,166.5,79.8,166.5,79.6"/>
	<path class="st0" d="M136.7,73.8c0,0-5.1,0-6.7,0c-2.2,0-2.6-4.1-2.6-4.1s1.4,1.4,2.3,1.4l6.5,0L136.7,73.8z"/>
	<path class="st0" d="M106.7,113.7c1.3,0,5.2-0.1,8.7-0.5c4.4-0.5,9.7-5.7,13.6-8.1c1.4-0.9,11.8-2.1,15.6-2.5c5.9-0.7,19,1,19,1
		s-18.1-0.3-24.8,2.8c-5.9,2.6-11.8,9.2-13.6,10.2c-1.7,0.9-5.8,2.4-7,2.6c-0.9,0.2-3.3,0.4-4.5,0.5L106.7,113.7z"/>
	<path class="st0" d="M117,122.2c2.5-0.7,8.8-2.6,9.5-3.1c0.8-0.7,8.5-6.6,13.9-8.6c8.6-3.3,26.6-4.5,29.1-5.2
		c3.3-0.9,12.3-6.3,12.8-6.7c0.5-0.4,1.4-1.1,1.4-1.1s-2.5,7.1-6.6,9.7c-3.6,2.3-18.7,1.6-21.9,2c-5.9,0.8-15.5,6.5-24.1,14.7
		c-1,0.9-6.3,2.9-7.9,3.5L117,122.2z"/>
	<path class="st0" d="M125.2,129.1c1.6-0.5,5.8-1.8,6.9-2.7c1.4-1.1,12.1-9.2,18.7-11.4c7.7-2.5,26.7-2.4,26.7-2.4
		s-17.5,3.4-22.9,6.1c-5.4,2.7-16.8,13.8-18,14.2c-1,0.3-4,1.2-5,1.5L125.2,129.1z"/>
	<path class="st0" d="M207.2,91.8c-0.8,4.4-3.3,7.9-9.1,7.9c-1.5,0-2.5-0.2-3.4-0.3l0.9-4.7c0.6,0.3,1.4,0.4,2.3,0.4
		c2,0,3.4-0.9,4-3.8l3.9-20.5h5.4L207.2,91.8z"/>
	<path class="st0" d="M213,78.6c2.8-0.3,6.1-0.5,9-0.4l-2.5,13.2c-0.5,2.6-0.1,3.6,1.3,3.6c2.8,0,6.6-6.6,7.5-11.5l1-5.3h5.3
		l-3.2,16.9c0.9,0.2,2.3,0.3,3.5,0.4l-0.6,3.4c-2.7,0.3-5.9,0.5-8.7,0.4c0.2-1.3,0.7-3.3,1.9-6.6l-0.1,0c-1.9,3.8-4.9,7-8.8,7
		c-4.1,0-5.3-2.9-4.5-7l2-10.3v-0.1c-0.9-0.2-2.3-0.3-3.6-0.4L213,78.6z"/>
	<path class="st0" d="M256.5,99.3h-5.3l2.5-13.2c0.5-2.6,0-3.6-1.3-3.6c-2.8,0-6.7,6.6-7.6,11.5l-1,5.3h-5.3l3.2-16.8v-0.1
		c-0.9-0.2-2.3-0.3-3.6-0.4l0.6-3.4c2.7-0.3,6-0.5,8.8-0.4c-0.3,1.3-0.7,3.3-1.9,6.6l0.1,0c1.9-3.8,4.9-7,8.8-7c4.1,0,5.3,2.9,4.5,7
		L256.5,99.3z"/>
	<path class="st0" d="M274.8,82.1c-4.9,0-7.1,5.7-7.1,10.1c0,2.1,0.6,2.9,1.6,2.9c3,0,6.8-6.9,7.6-11.3l0.3-1.4
		C276.5,82.2,275.7,82.1,274.8,82.1 M278.9,100.6c-1.1,5.8-4.8,9.3-13,9.3c-2.4,0-4.4-0.3-6.1-0.9l1.2-5c1.7,0.8,3.9,1.2,5.8,1.2
		c4,0,6.3-1.5,7-5.3c0.5-2.4,1-3.9,2.2-7.2l-0.1,0c-1.7,3-4.6,7.1-8.8,7.1c-3.2,0-5-2.1-5-6.6c0-8,4.3-15.3,13.5-15.3
		c2.5,0,5.1,0.2,7.5,0.6L278.9,100.6z"/>
	<path class="st0" d="M315.4,75.1l-13.5,17.2c-0.5,0.7-1,1.3-1.7,2c0.7-0.1,2.6-0.1,6-0.1h5.6l-1,5.1h-18.3l0.8-4.2l12.8-16.8
		c0.7-1,1.5-1.8,2.3-2.7c-1,0-2.2,0.1-5,0.1h-6.1l0.9-5h17.8L315.4,75.1z"/>
	<path class="st0" d="M326.5,81.8c-2.8,0-4.5,2.5-5.3,5.3c4.9-0.2,7.4-1.2,7.4-3.4C328.7,82.5,327.9,81.8,326.5,81.8 M320.7,90.7
		c0,0.5-0.1,1.2-0.1,1.7c0,2.4,0.9,3.1,3.9,3.1c2,0,4.2-0.5,6.1-1.3v4.2c-2.3,0.9-5.1,1.4-7.9,1.4c-5.3,0-7.5-2.5-7.5-7.1
		c0-8.8,5.3-14.8,11.9-14.8c5.2,0,6.8,2.6,6.8,5.1C333.9,88,328.9,90.5,320.7,90.7"/>
	<path class="st0" d="M346.8,81.8c-2.8,0-4.5,2.5-5.3,5.3c4.9-0.2,7.4-1.2,7.4-3.4C349,82.5,348.2,81.8,346.8,81.8 M341,90.7
		c0,0.5-0.1,1.2-0.1,1.7c0,2.4,0.9,3.1,3.9,3.1c2,0,4.2-0.5,6.1-1.3v4.2c-2.3,0.9-5.1,1.4-7.9,1.4c-5.3,0-7.5-2.5-7.5-7.1
		c0-8.8,5.3-14.8,11.9-14.8c5.2,0,6.8,2.6,6.8,5.1C354.2,88,349.3,90.5,341,90.7"/>
	<path class="st0" d="M361.1,99.3h-5.3l5.1-26.7l0-0.1c-1-0.2-2.4-0.3-3.6-0.4l0.6-3.4c2.7-0.3,6-0.5,9-0.4L361.1,99.3z"/>
	<path class="st0" d="M379.4,82.1c-4.9,0-7.1,5.7-7.1,10.1c0,2.1,0.6,2.9,1.6,2.9c3,0,6.8-6.9,7.6-11.3l0.3-1.4
		C381.1,82.2,380.3,82.1,379.4,82.1 M384.6,95.2c0.9,0.2,2.3,0.3,3.5,0.4l-0.6,3.4c-2.7,0.3-5.9,0.5-8.7,0.4
		c0.3-1.7,0.9-3.8,1.9-6.7h-0.1c-1.7,3.1-4.6,7.2-8.8,7.2c-3.2,0-5-2.1-5-6.6c0-8,4.3-15.3,13.5-15.3c2.5,0,5.1,0.2,7.4,0.6
		L384.6,95.2z"/>
	<path class="st0" d="M410,99.3h-5.3l2.5-13.2c0.5-2.6,0-3.6-1.3-3.6c-2.8,0-6.7,6.6-7.6,11.5l-1,5.3h-5.3l3.2-16.8v-0.1
		c-0.9-0.2-2.3-0.3-3.6-0.4l0.6-3.4c2.7-0.3,6-0.5,8.8-0.4c-0.3,1.3-0.7,3.3-1.9,6.6l0.1,0c1.9-3.8,4.9-7,8.8-7c4.1,0,5.3,2.9,4.5,7
		L410,99.3z"/>
	<path class="st0" d="M428.3,82.1c-4.9,0-7.1,5.7-7.1,10.1c0,2.1,0.5,2.9,1.6,2.9c3,0,6.8-6.9,7.6-11.3l0.3-1.4
		C430,82.2,429.2,82.1,428.3,82.1 M433.5,95.2c0.9,0.2,2.3,0.3,3.5,0.4l-0.6,3.4c-2.7,0.3-5.9,0.5-8.7,0.4c0.3-1.7,0.9-3.8,1.9-6.7
		h-0.1c-1.7,3.1-4.6,7.2-8.8,7.2c-3.2,0-5-2.1-5-6.6c0-8,4.3-15.3,13.5-15.3c0.7,0,1.4,0,2.2,0.2l1-5.4l0-0.1
		c-1-0.2-2.3-0.3-3.6-0.4l0.6-3.4c2.7-0.3,6-0.5,9-0.4L433.5,95.2z"/>
	<path class="st0" d="M448.5,75.6c-1.9,0-3.1-1.5-3.1-3c0-2,1.7-3.5,3.6-3.5c1.9,0,3.1,1.4,3.1,3C452.1,74.1,450.4,75.6,448.5,75.6
		 M446.2,99.3h-5.3l3.2-16.8v-0.1c-0.9-0.2-2.3-0.3-3.6-0.4l0.6-3.4c2.7-0.3,6-0.5,9-0.4L446.2,99.3z"/>
	<path class="st0" d="M464.6,82.1c-4.9,0-7.1,5.7-7.1,10.1c0,2.1,0.6,2.9,1.6,2.9c3,0,6.8-6.9,7.6-11.3l0.3-1.4
		C466.3,82.2,465.5,82.1,464.6,82.1 M469.8,95.2c0.9,0.2,2.3,0.3,3.5,0.4l-0.6,3.4c-2.7,0.3-5.9,0.5-8.7,0.4
		c0.3-1.7,0.9-3.8,1.9-6.7h-0.1c-1.7,3.1-4.6,7.2-8.8,7.2c-3.2,0-5-2.1-5-6.6c0-8,4.3-15.3,13.5-15.3c2.5,0,5.1,0.2,7.4,0.6
		L469.8,95.2z"/>
	<path class="st0" d="M307.6,134.4h-2.8l0.3-5.6c0.1-1.1,0.1-2.1,0.2-3h0c-0.3,0.9-0.7,1.8-1.2,2.8l-2.9,5.8h-2.5L298,129
		c-0.1-1-0.2-2.3-0.2-3.2h0c-0.3,1.1-0.6,2.1-0.9,3.2l-1.7,5.4h-2.6l4.3-12.5h2.9l0.8,6.1c0.1,0.9,0.2,1.7,0.2,2.7h0
		c0.4-1,0.7-1.7,1.2-2.7l3.1-6.1h2.9L307.6,134.4z"/>
	<path class="st0" d="M314.3,126.9c-1.1,0-1.9,1.1-2.1,2.2c1.9-0.1,3-0.5,3-1.4C315.2,127.1,314.9,126.9,314.3,126.9 M311.9,130.7
		c0,0.2,0,0.5,0,0.6c0,1,0.4,1.3,1.6,1.3c0.9,0,1.8-0.2,2.7-0.6v1.9c-1,0.4-2.3,0.6-3.5,0.6c-2.4,0-3.3-1.1-3.3-3.2
		c0-3.9,2.4-6.4,5.2-6.4c2.4,0,3.1,1.2,3.1,2.3C317.6,129.5,315.4,130.6,311.9,130.7"/>
	<path class="st0" d="M326.2,134.4h-2.5l1.1-5.7c0.2-1.1,0-1.5-0.5-1.5c-1.1,0-2.7,2.7-3.1,4.8l-0.4,2.4h-2.5l2.6-13.5h2.5l-0.7,3.8
		c-0.1,0.8-0.5,1.8-1,3.2l0,0c0.8-1.6,2.1-2.9,3.8-2.9c1.8,0,2.3,1.3,2,3L326.2,134.4z"/>
	<path class="st0" d="M335.1,127.4c-1.5-0.4-3,1.7-3.6,5l-0.4,2h-2.5l0.9-4.8c0.2-1.2,0.6-3.2,0.8-4.4h2.4c-0.1,0.7-0.4,1.5-0.8,2.6
		h0c1-1.9,1.9-3.1,3.6-2.8L335.1,127.4z"/>
	<path class="st0" d="M353.7,134.4h-2.8l0.3-5.6c0.1-1.1,0.1-2.1,0.2-3h0c-0.3,0.9-0.7,1.8-1.2,2.8l-2.9,5.8h-2.5l-0.7-5.4
		c-0.1-1-0.2-2.3-0.2-3.2h0c-0.3,1.1-0.6,2.1-0.9,3.2l-1.7,5.4h-2.6l4.3-12.5h2.9l0.8,6.1c0.1,0.9,0.2,1.7,0.2,2.7h0
		c0.4-1,0.7-1.7,1.2-2.7l3.1-6.1h2.9L353.7,134.4z"/>
	<path class="st0" d="M363.5,123.8c-0.7,0-1.3-0.6-1.3-1.3c0-0.8,0.7-1.4,1.4-1.4c0.7,0,1.3,0.6,1.3,1.3
		C364.9,123.2,364.2,123.8,363.5,123.8 M359.6,123.8c-0.7,0-1.3-0.6-1.3-1.3c0-0.8,0.6-1.4,1.4-1.4c0.8,0,1.3,0.6,1.3,1.3
		C361,123.2,360.4,123.8,359.6,123.8 M360.6,127.2c-1.6,0-2.6,2-2.6,3.7c0,0.9,0.4,1.5,1.4,1.5c1.6,0,2.6-1.8,2.6-3.7
		C362.1,127.7,361.6,127.2,360.6,127.2 M359.1,134.6c-2.6,0-3.7-1.2-3.7-3.3c0-3.9,2.6-6.3,5.6-6.3c2.7,0,3.7,1.4,3.7,3.4
		C364.7,132.1,362,134.6,359.1,134.6"/>
	<path class="st0" d="M371,127c-2,0-2.9,2.4-2.9,4.2c0,0.8,0.2,1.2,0.6,1.2c1.2,0,2.8-2.9,3.1-4.7l0.1-0.6
		C371.7,127,371.4,127,371,127 M373,134.9c-0.5,2.6-2.1,4.1-5.8,4.1c-1.1,0-2-0.2-2.7-0.4l0.6-2.3c0.8,0.4,1.7,0.6,2.6,0.6
		c1.7,0,2.7-0.6,3-2.2c0.2-1,0.4-1.6,0.9-2.9l0,0c-0.7,1.3-2,2.9-3.7,2.9c-1.4,0-2.2-0.9-2.2-2.9c0-3.5,1.9-6.7,5.9-6.7
		c1.1,0,2.3,0.1,3.4,0.3L373,134.9z"/>
</g>
<polygon class="st0" points="377.9,134.4 375.4,134.4 378,120.9 380.5,120.9 "/>
<g>
	<path class="st0" d="M383.7,123.9c-0.9,0-1.5-0.7-1.5-1.4c0-0.9,0.8-1.6,1.7-1.6c0.8,0,1.5,0.7,1.5,1.4
		C385.4,123.3,384.6,123.9,383.7,123.9 M382.8,134.4h-2.5l1.7-8.8l0.1-0.4h2.5L382.8,134.4z"/>
	<path class="st0" d="M392.1,127.5c-0.5-0.2-0.9-0.3-1.4-0.3c-1.8,0-2.7,2-2.7,3.6c0,0.9,0.4,1.6,1.6,1.6c0.6,0,1.2-0.2,1.8-0.4
		l0.1,2.1c-0.7,0.3-1.7,0.5-2.6,0.5c-2.5,0-3.5-1.3-3.5-3.2c0-3.5,2.1-6.4,5.4-6.4c0.7,0,1.5,0.1,2.1,0.4L392.1,127.5z"/>
	<path class="st0" d="M400.8,134.4h-2.5l1.1-5.7c0.2-1.1,0-1.5-0.5-1.5c-1.1,0-2.7,2.7-3.1,4.8l-0.4,2.4h-2.5l2.6-13.5h2.5l-0.7,3.8
		c-0.1,0.8-0.5,1.8-1,3.2l0,0c0.8-1.6,2.1-2.9,3.8-2.9c1.8,0,2.3,1.3,2,3L400.8,134.4z"/>
</g>
<polygon class="st0" points="409,129.4 411.4,134.4 408.3,134.4 406.5,129.8 405.7,134.4 403.2,134.4 405.7,120.9 408.2,120.9 
	406.7,128.9 410.6,124.6 412.6,125.9 "/>
<g>
	<path class="st0" d="M417.4,126.9c-1.1,0-1.9,1.1-2.1,2.2c1.9-0.1,3-0.5,3-1.4C418.2,127.1,417.9,126.9,417.4,126.9 M414.9,130.7
		c0,0.2,0,0.5,0,0.6c0,1,0.4,1.3,1.6,1.3c0.9,0,1.8-0.2,2.7-0.6v1.9c-1,0.4-2.3,0.6-3.5,0.6c-2.4,0-3.3-1.1-3.3-3.2
		c0-3.9,2.4-6.4,5.2-6.4c2.4,0,3.1,1.2,3.1,2.3C420.7,129.5,418.5,130.6,414.9,130.7"/>
	<path class="st0" d="M424.7,123.9c-0.9,0-1.5-0.7-1.5-1.4c0-0.9,0.8-1.6,1.7-1.6c0.9,0,1.5,0.7,1.5,1.4
		C426.3,123.3,425.5,123.9,424.7,123.9 M423.7,134.4h-2.5l1.7-8.8l0.1-0.4h2.5L423.7,134.4z"/>
	<path class="st0" d="M432.5,127.1h-2.1l-0.8,4c-0.2,1,0,1.3,0.7,1.3c0.4,0,0.8-0.1,1.1-0.1l-0.3,2c-0.6,0.2-1.4,0.2-1.9,0.2
		c-2,0-2.6-0.9-2.1-3.2l0.8-4.2h-1.5l0.4-2h1.5l0.5-2.8l2.6-0.5l-0.6,3.3h2.1L432.5,127.1z"/>
	<path class="st0" d="M438.1,126.9c-1.1,0-1.9,1.1-2.1,2.2c1.9-0.1,3-0.5,3-1.4C439,127.1,438.6,126.9,438.1,126.9 M435.7,130.7
		c0,0.2,0,0.5,0,0.6c0,1,0.4,1.3,1.6,1.3c0.9,0,1.8-0.2,2.7-0.6v1.9c-1,0.4-2.3,0.6-3.5,0.6c-2.4,0-3.3-1.1-3.3-3.2
		c0-3.9,2.4-6.4,5.2-6.4c2.4,0,3.1,1.2,3.1,2.3C441.4,129.5,439.2,130.6,435.7,130.7"/>
	<path class="st0" d="M449.9,134.4h-2.5l1.1-5.7c0.2-1.1,0-1.5-0.5-1.5c-1.1,0-2.7,2.7-3.1,4.8l-0.4,2.4H442l0.9-4.8
		c0.3-1.3,0.6-3.2,0.8-4.4h2.4c-0.1,0.5-0.3,1.4-0.8,2.6l0,0c0.8-1.6,2.1-2.9,3.8-2.9c1.8,0,2.3,1.3,2,3L449.9,134.4z"/>
</g>
</svg>
