<?xml version="1.0" encoding="utf-8"?>
<!-- Generator: Adobe Illustrator 19.2.1, SVG Export Plug-In . SVG Version: 6.00 Build 0)  -->
<svg version="1.1" id="Ebene_1" xmlns="http://www.w3.org/2000/svg" xmlns:xlink="http://www.w3.org/1999/xlink" x="0px" y="0px"
	 viewBox="0 0 580 200" style="enable-background:new 0 0 580 200;" xml:space="preserve">
<style type="text/css">
	.st0{fill:#FFFFFF;}
</style>
<g>
	<path class="st0" d="M247.2,136V89.2c9.8,0,13.1,7.5,13.1,14c0,8.2-3.7,13.5-10.1,14V136c19.5,0,30.9-15.9,30.9-31
		c0-20.4-12.8-34.5-33.6-34.5h-20.7V136H247.2z"/>
</g>
<rect x="285" y="70.5" class="st0" width="20.4" height="65.5"/>
<g>
	<path class="st0" d="M353.2,95.4h-21c2.6-6,8.1-7.5,13.1-7.5h7.9V70.5h-10.3c-15.4,0-33.2,10.5-33.2,32.7
		c0,22.3,17.8,32.7,33.2,32.7h10.3v-17.4h-7.9c-5.1,0-10.5-1.5-13.1-7.5h21V95.4z"/>
	<path class="st0" d="M288.2,61.1c0-3.9,3.2-7.1,7.1-7.1c3.9,0,7.2,3.2,7.2,7.1c0,3.9-3.2,7.1-7.2,7.1
		C291.4,68.3,288.2,65.1,288.2,61.1"/>
</g>
</svg>
