<?xml version="1.0" encoding="utf-8"?>
<!-- Generator: Adobe Illustrator 19.2.1, SVG Export Plug-In . SVG Version: 6.00 Build 0)  -->
<svg version="1.1" id="Ebene_1" xmlns="http://www.w3.org/2000/svg" xmlns:xlink="http://www.w3.org/1999/xlink" x="0px" y="0px"
	 viewBox="0 0 580 200" style="enable-background:new 0 0 580 200;" xml:space="preserve">
<style type="text/css">
	.st0{fill:#FFFFFF;}
</style>
<g>
	<path class="st0" d="M144.6,157.5v-26.1h-3v12.5c0,6.6-3.1,11.4-7.5,11.4c-3.7,0-4.7-2.6-4.7-6.9v-16.9h-3l0,18.2
		c0,4.7,1.6,8.4,7,8.4c4.1,0,7.2-2.6,8.5-6.6l0.1,0.1c-0.3,1.6-0.4,4.2-0.4,6H144.6z"/>
	<path class="st0" d="M171.3,157.5v-18.1c0-4.7-1.6-8.4-7.1-8.4c-4.1,0-7.1,2.6-8.5,6.6l-0.1-0.1c0.3-1.6,0.4-4.2,0.4-6h-3v26.1h3
		V145c0-6.6,3.1-11.4,7.5-11.4c3.7,0,4.7,2.6,4.7,6.9v16.9H171.3z"/>
	<path class="st0" d="M182.8,131.4h-3v26.1h3V131.4z M183.4,124.1c0-1.4-0.9-2.4-2.1-2.4c-1.2,0-2.1,1-2.1,2.4
		c0,1.3,0.9,2.4,2.1,2.4C182.5,126.4,183.4,125.4,183.4,124.1"/>
	<path class="st0" d="M208.4,131.4h-3.3l-6,18.4c-0.5,1.4-0.9,2.8-1.3,4.2h0c-0.4-1.5-0.8-2.8-1.3-4.4l-5.8-18.2h-3.4l8.9,26.1h3.1
		L208.4,131.4z"/>
	<path class="st0" d="M225.8,140.6h-12.6c0.7-4.4,3.1-7.1,6.6-7.1C223.6,133.5,225.9,136.4,225.8,140.6 M228.9,141.5
		c0-5.6-2.6-10.5-9-10.5c-6.3,0-10.1,5.8-10.1,13.5c0,9.2,3.7,13.4,10.7,13.4c2.9,0,5.5-0.6,7.6-1.5l-0.3-2.9
		c-1.7,0.9-4.3,1.7-6.8,1.7c-5.5,0-8.3-3.5-8-11.9h15.8C228.9,142.5,228.9,141.8,228.9,141.5"/>
	<path class="st0" d="M246.3,131c-5.1-0.7-7.6,3.4-8.5,7.3l-0.1-0.1c0.4-2.3,0.6-5,0.6-6.8h-3v26.1h3v-10.4c0-9.1,2.5-13.8,7.9-12.9
		L246.3,131z"/>
	<path class="st0" d="M264.5,149.8c0-9-11.8-5-11.8-11.7c0-2.7,1.9-4.5,5.5-4.5c1.6,0,3.4,0.4,4.9,0.9l0.1-2.9
		c-1.5-0.4-3.2-0.6-4.7-0.6c-5.8,0-8.9,3.2-8.9,7.5c0,9.4,11.8,5.2,11.8,11.9c0,3-2.5,4.8-6.2,4.8c-1.8,0-3.8-0.4-5.3-0.8l-0.1,3.1
		c1.4,0.4,3.2,0.5,5,0.5C260.9,157.9,264.5,154.3,264.5,149.8"/>
	<path class="st0" d="M274.2,131.4h-3v26.1h3V131.4z M274.8,124.1c0-1.4-0.9-2.4-2.1-2.4c-1.2,0-2.1,1-2.1,2.4
		c0,1.3,0.9,2.4,2.1,2.4C273.9,126.4,274.8,125.4,274.8,124.1"/>
	<path class="st0" d="M293.7,157.4v-2.9c-1,0.3-2.3,0.5-3.5,0.5c-2.9,0-3.7-1.3-3.7-6.2V134h7.2v-2.6h-7.2v-9.7l-3,0.9v8.8h-5.3v2.6
		h5.4v16.3c0,5.2,1.3,7.6,5.8,7.6C290.9,157.8,292.5,157.6,293.7,157.4z"/>
	<path class="st0" d="M311.9,145.5c0,4.8-2.9,9.7-7.3,9.7c-2.4,0-4-1.6-4-4.1c0-2.6,2-5.9,11.4-5.9V145.5z M315,157.5
		c0-2.4-0.1-5.4-0.1-8.1v-10c0-4.8-1.7-8.4-7.9-8.4c-3.1,0-5.8,0.8-8,2l0.3,3c2.1-1.5,4.9-2.3,7.1-2.3c4.2,0,5.5,2.4,5.5,6.6v2.3
		c-9.4,0-14.4,3.8-14.4,9.1c0,4.1,2.7,6.2,6.4,6.2c4.1,0,7.1-2.8,8.3-6.2l0.1,0.1c-0.2,1.5-0.3,3.6-0.3,5.7H315z M304.5,123
		c0-1.3-0.9-2.3-2-2.3c-1.2,0-2,0.9-2,2.3c0,1.3,0.8,2.3,2,2.3C303.6,125.2,304.5,124.2,304.5,123 M313.2,123c0-1.3-0.9-2.3-2-2.3
		c-1.1,0-2,0.9-2,2.3c0,1.3,0.9,2.3,2,2.3C312.3,125.2,313.2,124.2,313.2,123"/>
	<path class="st0" d="M333.8,157.4v-2.9c-1,0.3-2.3,0.5-3.5,0.5c-2.9,0-3.7-1.3-3.7-6.2V134h7.2v-2.6h-7.2v-9.7l-3,0.9v8.8h-5.3v2.6
		h5.4v16.3c0,5.2,1.3,7.6,5.8,7.6C331,157.8,332.6,157.6,333.8,157.4z"/>
	<path class="st0" d="M353.2,143.8c0,6.5-2.5,8.9-5.9,8.9c-1.3,0-2.3-0.2-3.2-0.5v-7.3c0-4.4,1.9-8.4,5-8.4
		C351.9,136.4,353.2,138.9,353.2,143.8 M359.5,143.1c0-7.7-3-12.2-8.6-12.2c-3.2,0-5.9,1.8-7.1,4.6h0c0.2-1.4,0.4-3.5,0.4-5.1V119
		h-6.1v37.8c2.7,0.8,5.4,1.3,8.8,1.3C354.9,158,359.5,151.9,359.5,143.1"/>
	<path class="st0" d="M378.3,144.3c0,5.3-2.3,8-5.2,8c-3.5,0-5.2-2.7-5.2-8.1s2.6-7.7,5.3-7.7C376.7,136.5,378.3,139.3,378.3,144.3
		 M384.6,143.9c0-9-4.3-13.1-10.9-13.1c-7.1,0-11.9,5.9-11.9,14c0,9.3,4.3,13.1,10.9,13.1C379.6,158,384.6,152.1,384.6,143.9z"/>
	<path class="st0" d="M408.6,157.5v-18.3c0-4.6-1.7-8.3-7-8.3c-3.8,0-6.5,2.2-7.9,5.2l0-0.1c0.2-1.4,0.3-3.4,0.3-4.6h-5.7v26.1h6
		v-12.6c0-4.6,2.4-8.4,5.5-8.4c2.2,0,2.9,1.6,2.9,4.4v16.7H408.6z"/>
	<path class="st0" d="M434.4,157.5v-18.3c0-4.6-1.7-8.3-7-8.3c-3.8,0-6.5,2.2-7.9,5.2l0-0.1c0.2-1.4,0.3-3.4,0.3-4.6H414v26.1h6
		v-12.6c0-4.6,2.4-8.4,5.5-8.4c2.2,0,2.9,1.6,2.9,4.4v16.7H434.4z"/>
	<path class="st0" d="M415.6,48.8c0,0-0.1,1.1,0.2,1.6c0.8,1.6,4.6,0.8,5.1,4.2c0.4,2.3-0.3,3.5,2.5,4.6l-1.5,2l-0.7,0l0,12.6h0.4
		c0.1,0.8,0.3,1.4,1.1,1.7l-0.7,0.6v4.3h4.3v1.3l-0.4,0.1l0,0.3c0.2,3,1.4,6.7,2.6,9.4c3,6.7,8,11.5,14.9,14.2l-0.8,1.5l-0.8,0
		l0,50.2h11.7l0-115.5l-115.5,0v67.3l50.2,0l0-2.1h-0.8l-0.8-1.5c6.9-2.7,11.9-7.5,14.9-14.2c1.2-2.6,2.4-6.4,2.6-9.4V82l-0.4-0.1
		v-1.3h4.3v-4.3l-0.7-0.6c0.8-0.3,1.1-0.9,1.1-1.7h0.4V61.3h-0.6l-1.5-2c2.8-1.2,2.1-2.3,2.5-4.6c0.6-3.4,4.3-2.7,5.1-4.2
		c0.3-0.5,0.2-1.6,0.2-1.6c-0.3-0.2-0.6-0.5-0.6-0.9c0-0.4,0.3-0.8,0.7-1v-1.5c0-0.5,0.7-0.5,0.7,0v1.5c0.4,0.1,0.7,0.5,0.7,1
		C416.1,48.3,415.9,48.6,415.6,48.8z"/>
	<path class="st0" d="M412.7,73.1v-6.5c0-1.4,1.1-2.5,2.5-2.5s2.5,1.1,2.5,2.5v6.5c-0.3,0-0.5,0.2-0.5,0.4v0.3h-3.9v-0.3
		c0-0.2-0.2-0.4-0.4-0.4H412.7z"/>
</g>
</svg>
