<?xml version="1.0" encoding="utf-8"?>
<!-- Generator: Adobe Illustrator 19.2.1, SVG Export Plug-In . SVG Version: 6.00 Build 0)  -->
<svg version="1.1" id="Ebene_1" xmlns="http://www.w3.org/2000/svg" xmlns:xlink="http://www.w3.org/1999/xlink" x="0px" y="0px"
	 viewBox="0 0 580 200" style="enable-background:new 0 0 580 200;" xml:space="preserve">
<style type="text/css">
	.st0{fill:#FFFFFF;}
</style>
<g>
	<path class="st0" d="M238,72.9c10.9,4.7,17.7,15.3,17.7,27.1c0,13.9-6.9,23.5-17.7,27.6L238,72.9z M212,72.9v54.6
		c-10.8-4.1-17.7-13.7-17.7-27.6C194.3,88.2,201.1,77.7,212,72.9 M238,134.6c19.2-3.4,38.7-14.5,38.7-34.6
		c0-16.5-19.6-29.8-38.7-34.2l0-6c0-2.7,2.2-4.9,4.9-4.9l4.7,0v-4.4h-45.2v4.4h4.7c2.7,0,4.9,2.1,4.9,4.8v6
		c-19.2,4.4-38.7,17.8-38.7,34.2c0,20.1,19.6,31.1,38.8,34.6l0,5.7c0,2.7-2.2,4.8-4.9,4.8h-4.7v4.4h45.2v-4.4l-4.7,0
		c-2.7,0-4.9-2.2-4.9-4.9L238,134.6L238,134.6z"/>
	<path class="st0" d="M347.3,85.1h5.7c3.8,0,6,2.5,6,6.6c0,2.1-0.3,3.4-1.1,4.6c-1.2,1.8-2.3,2.3-5.9,2.3h-4.7V85.1z M306.9,84.9
		h4.1c3.5,0,5.5,1.3,7,3.7c1.8,2.9,2.2,7.2,2.2,12.4c0,9.4-2.7,13.9-8.5,13.9h-4.8V84.9z M338.4,77.9v44.3h8.9v-16.3h4.9
		c4.9,0,6.8-0.5,8.8-1.5c4.8-2.3,7.7-7,7.7-12.8c0-5.1-2.2-9.2-6.4-11.5c-2.5-1.4-4.8-2.2-12.3-2.2H338.4z M297.8,77.9v44.3h10.8
		c2.6,0,4.7-0.1,6.4-0.2c4.1-0.3,8.1-2.7,10.8-6.4c3-4,4.5-9.3,4.5-15.4c0-8-2-13.7-6.1-17.7c-2.7-2.7-5.9-4-9.7-4.4
		c-1.8-0.1-5.1-0.3-7.7-0.3H297.8z M392.3,77.2c-4.2,0-7.5,0.9-10.8,3.1c-6.2,4.1-9.2,10.8-9.2,20.1c0,6.6,1.5,11.3,4.7,15.5
		c3.6,4.6,8.5,6.8,15.1,6.8c5.2,0,10.2-1.3,14.7-4V97.5h-17.2l1.1,7.3h6.8v10.1c-1.5,0.8-3.1,1.1-5,1.1c-2.9,0-5.3-0.9-6.9-2.5
		c-2.2-2.2-3.3-6.3-3.3-12.6c0-6.6,0.8-11.4,3.8-14.3c1.5-1.5,3.8-2.2,6.4-2.2c3.4,0,6.4,1.1,9.2,3.4l4.7-5.6
		C402.4,78.9,397.6,77.2,392.3,77.2"/>
</g>
</svg>
