<?xml version="1.0" encoding="utf-8"?>
<!-- Generator: Adobe Illustrator 19.2.1, SVG Export Plug-In . SVG Version: 6.00 Build 0)  -->
<svg version="1.1" id="Ebene_1" xmlns="http://www.w3.org/2000/svg" xmlns:xlink="http://www.w3.org/1999/xlink" x="0px" y="0px"
	 viewBox="0 0 580 200" style="enable-background:new 0 0 580 200;" xml:space="preserve">
<style type="text/css">
	.st0{fill:#FFFFFF;}
</style>
<g>
	<path class="st0" d="M152.7,88.9v-3.8c0-2.7-0.1-4.4-0.4-5.2c-0.3-0.8-0.9-1.2-1.8-1.2c-1.1,0-1.8,0.3-2,1
		c-0.3,0.7-0.4,2.5-0.4,5.4v3.8H152.7z M168.6,97.3h-20.5v11.2c0,2.3,0.2,3.9,0.5,4.5c0.3,0.7,1,1,2,1c1.2,0,2-0.4,2.4-1.4
		c0.4-0.9,0.6-2.6,0.6-5.2v-6.8h15v3.8c0,3.2-0.2,5.7-0.6,7.4c-0.4,1.7-1.4,3.6-2.8,5.5c-1.5,2-3.4,3.4-5.7,4.4s-5.1,1.5-8.6,1.5
		c-3.3,0-6.3-0.5-8.8-1.4c-2.6-1-4.5-2.3-6-4c-1.4-1.7-2.4-3.5-3-5.6c-0.5-2-0.8-5-0.8-8.8V88.4c0-4.5,0.6-8.1,1.8-10.7
		c1.2-2.6,3.2-4.6,6-6c2.8-1.4,6-2.1,9.6-2.1c4.4,0,8.1,0.8,11,2.5c2.9,1.7,4.9,3.9,6.1,6.7c1.2,2.8,1.7,6.7,1.7,11.7V97.3z"/>
	<path class="st0" d="M207.7,70.4l-0.6,6.8c2.3-4.9,5.6-7.5,10-7.8v18.3c-2.9,0-5,0.4-6.4,1.2c-1.4,0.8-2.2,1.9-2.5,3.3
		c-0.3,1.4-0.5,4.6-0.5,9.6v20.5h-15.8V70.4H207.7z"/>
	<path class="st0" d="M240.5,88.9v-3.8c0-2.7-0.1-4.4-0.4-5.2c-0.3-0.8-0.9-1.2-1.8-1.2c-1.1,0-1.8,0.3-2,1
		c-0.3,0.7-0.4,2.5-0.4,5.4v3.8H240.5z M256.4,97.3h-20.5v11.2c0,2.3,0.2,3.9,0.5,4.5c0.3,0.7,1,1,2,1c1.2,0,2-0.4,2.4-1.4
		c0.4-0.9,0.6-2.6,0.6-5.2v-6.8h15v3.8c0,3.2-0.2,5.7-0.6,7.4c-0.4,1.7-1.4,3.6-2.8,5.5c-1.5,2-3.4,3.4-5.7,4.4
		c-2.3,1-5.1,1.5-8.6,1.5c-3.3,0-6.3-0.5-8.8-1.4c-2.6-1-4.5-2.3-6-4c-1.4-1.7-2.4-3.5-3-5.6c-0.5-2-0.8-5-0.8-8.8V88.4
		c0-4.5,0.6-8.1,1.8-10.7c1.2-2.6,3.2-4.6,6-6c2.8-1.4,6-2.1,9.6-2.1c4.4,0,8.1,0.8,11,2.5c2.9,1.7,4.9,3.9,6.1,6.7
		c1.2,2.8,1.7,6.7,1.7,11.7V97.3z"/>
</g>
<rect x="261.5" y="59" class="st0" width="16.3" height="63.4"/>
<g>
	<path class="st0" d="M302.6,97.7c-2.5,1.9-4,3.4-4.4,4.7c-0.4,1.3-0.6,3.1-0.6,5.4c0,2.7,0.2,4.4,0.5,5.2c0.4,0.8,1,1.2,2.1,1.2
		c1,0,1.6-0.3,1.9-0.9c0.3-0.6,0.4-2.2,0.4-4.8V97.7z M297.6,90.5h-14.8v-3.5c0-4,0.5-7.1,1.4-9.3c0.9-2.2,2.8-4.1,5.6-5.8
		c2.8-1.7,6.4-2.5,10.9-2.5c5.3,0,9.4,0.9,12.1,2.8c2.7,1.9,4.3,4.2,4.9,7c0.5,2.8,0.8,8.4,0.8,17v26.1h-15.4v-4.6
		c-1,1.9-2.2,3.2-3.7,4.2c-1.5,0.9-3.3,1.4-5.5,1.4c-2.8,0-5.3-0.8-7.6-2.3c-2.3-1.6-3.5-4.9-3.5-10.2v-4.3c0-3.9,0.6-6.5,1.8-7.9
		c1.2-1.4,4.3-3.1,9.1-4.9c5.2-2,8-3.4,8.3-4.1c0.4-0.7,0.5-2.1,0.5-4.3c0-2.7-0.2-4.5-0.6-5.3c-0.4-0.8-1.1-1.2-2-1.2
		c-1.1,0-1.7,0.3-2,1c-0.3,0.7-0.4,2.5-0.4,5.4V90.5z"/>
	<path class="st0" d="M340.6,63.5v8.2h4.3v8.2h-4.3v27.8c0,3.4,0.2,5.3,0.5,5.7c0.4,0.4,1.8,0.6,4.4,0.6v8.4h-6.4
		c-3.6,0-6.2-0.1-7.7-0.4s-2.9-1-4.1-2.1c-1.2-1.1-1.9-2.3-2.2-3.7c-0.3-1.4-0.4-4.7-0.4-9.8V79.9h-3.4v-8.2h3.4v-8.2H340.6z"/>
</g>
<path class="st0" d="M364.6,122.4h-16.3V70.4h16.3V122.4z M364.6,67.3h-16.3V59h16.3V67.3z"/>
<g>
	<path class="st0" d="M390.2,84.8c0-2.7-0.1-4.3-0.4-5c-0.3-0.7-0.9-1-1.8-1c-0.9,0-1.6,0.3-1.9,1c-0.3,0.7-0.5,2.4-0.5,5v23.4
		c0,2.5,0.2,4.1,0.5,4.8c0.3,0.7,0.9,1.1,1.8,1.1c0.9,0,1.6-0.3,1.9-1c0.3-0.7,0.4-2.1,0.4-4.4V84.8z M406,88.7v12.7
		c0,4.7-0.2,8.1-0.7,10.3s-1.5,4.2-3,6.1c-1.5,1.9-3.5,3.3-5.9,4.2c-2.4,0.9-5.2,1.3-8.3,1.3c-3.5,0-6.5-0.4-8.9-1.2
		c-2.4-0.8-4.3-1.9-5.7-3.5c-1.3-1.6-2.3-3.4-2.9-5.6c-0.6-2.2-0.9-5.5-0.9-9.9V89.8c0-4.8,0.5-8.6,1.6-11.3c1-2.7,2.9-4.9,5.6-6.5
		c2.7-1.6,6.2-2.5,10.4-2.5c3.5,0,6.6,0.5,9.1,1.6c2.5,1.1,4.5,2.4,5.9,4.1c1.4,1.7,2.3,3.4,2.8,5.2C405.8,82.2,406,85,406,88.7"/>
	<path class="st0" d="M427.3,70.4l-0.3,4.8c1.1-1.9,2.6-3.3,4.2-4.3c1.7-1,3.6-1.4,5.7-1.4c2.7,0,4.9,0.6,6.7,1.9
		c1.7,1.3,2.8,2.9,3.3,4.8c0.5,1.9,0.7,5.2,0.7,9.7v36.4h-15.8v-36c0-3.6-0.1-5.8-0.4-6.5c-0.2-0.8-0.9-1.2-2-1.2
		c-1.1,0-1.8,0.4-2.1,1.3c-0.3,0.9-0.4,3.3-0.4,7.2v35.1h-15.8V70.4H427.3z"/>
	<path class="st0" d="M232.4,131.6h-4.8v-2.4c0-0.7-0.1-1.1-0.2-1.3c-0.1-0.2-0.3-0.3-0.7-0.3c-0.4,0-0.6,0.1-0.8,0.3
		c-0.1,0.2-0.2,0.7-0.2,1.4v6.5c0,0.7,0.1,1.1,0.2,1.3c0.1,0.2,0.3,0.3,0.7,0.3c0.4,0,0.6-0.1,0.7-0.3c0.1-0.2,0.2-0.7,0.2-1.5v-1.7
		h4.8v0.5c0,1.4-0.1,2.5-0.4,3.1c-0.3,0.6-0.9,1.1-1.8,1.6c-0.9,0.5-2.1,0.7-3.4,0.7c-1.4,0-2.6-0.2-3.5-0.6
		c-0.9-0.4-1.5-0.9-1.8-1.6c-0.3-0.7-0.4-1.7-0.4-3.1v-4.1c0-1,0-1.7,0.1-2.3c0.1-0.5,0.4-1,0.8-1.4c0.5-0.5,1.1-0.8,1.9-1.1
		c0.8-0.3,1.7-0.4,2.8-0.4c1.4,0,2.6,0.2,3.5,0.6c0.9,0.4,1.5,0.9,1.8,1.5c0.3,0.6,0.4,1.6,0.4,2.9V131.6z"/>
	<path class="st0" d="M241.7,129.1c0-0.6,0-1.1-0.1-1.2c-0.1-0.2-0.3-0.3-0.6-0.3c-0.3,0-0.4,0.1-0.6,0.2c-0.1,0.1-0.2,0.6-0.2,1.3
		v6.5c0,0.8,0,1.3,0.1,1.5c0.1,0.2,0.3,0.3,0.6,0.3c0.3,0,0.5-0.1,0.6-0.3c0.1-0.2,0.1-0.7,0.1-1.6V129.1z M246.5,133.7
		c0,1.4,0,2.4-0.1,3c-0.1,0.6-0.4,1.1-0.8,1.6c-0.5,0.5-1.1,0.8-1.9,1.1c-0.8,0.3-1.7,0.4-2.7,0.4c-1,0-1.9-0.1-2.7-0.4
		c-0.8-0.2-1.4-0.6-1.9-1.1c-0.5-0.5-0.8-1-0.9-1.6c-0.1-0.6-0.1-1.6-0.1-3v-2.4c0-1.4,0-2.4,0.1-3s0.4-1.1,0.8-1.6
		c0.5-0.5,1.1-0.8,1.9-1.1c0.8-0.3,1.7-0.4,2.7-0.4c1,0,1.9,0.1,2.7,0.4c0.8,0.2,1.4,0.6,1.9,1.1c0.5,0.5,0.8,1,0.9,1.6
		c0.1,0.6,0.1,1.6,0.1,3V133.7z"/>
</g>
<polygon class="st0" points="260.5,125.6 260.5,139.4 256.3,139.4 253.7,133.1 253.7,139.4 249.7,139.4 249.7,125.6 253.7,125.6 
	256.4,131.8 256.4,125.6 "/>
<polygon class="st0" points="273.5,125.6 273.5,128.3 270.6,128.3 270.6,139.4 265.8,139.4 265.8,128.3 263,128.3 263,125.6 "/>
<polygon class="st0" points="276,125.6 284,125.6 284,128.3 280.8,128.3 280.8,131 283.8,131 283.8,133.6 280.8,133.6 280.8,136.7 
	284.3,136.7 284.3,139.4 276,139.4 "/>
<polygon class="st0" points="297.8,125.6 297.8,139.4 293.6,139.4 291.1,133.1 291.1,139.4 287.1,139.4 287.1,125.6 291.1,125.6 
	293.8,131.8 293.8,125.6 "/>
<polygon class="st0" points="310.9,125.6 310.9,128.3 308,128.3 308,139.4 303.2,139.4 303.2,128.3 300.3,128.3 300.3,125.6 "/>
<rect x="318.8" y="125.6" class="st0" width="4.8" height="13.9"/>
<polygon class="st0" points="337.7,125.6 337.7,139.4 333.5,139.4 331,133.1 331,139.4 327,139.4 327,125.6 331,125.6 333.7,131.8 
	333.7,125.6 "/>
<polygon class="st0" points="357.6,125.6 357.6,139.4 352.8,139.4 352.8,133.6 351.4,133.6 351.4,139.4 346.6,139.4 346.6,125.6 
	351.4,125.6 351.4,130.5 352.8,130.5 352.8,125.6 "/>
<polygon class="st0" points="361,125.6 369,125.6 369,128.3 365.8,128.3 365.8,131 368.8,131 368.8,133.6 365.8,133.6 365.8,136.7 
	369.3,136.7 369.3,139.4 361,139.4 "/>
<g>
	<path class="st0" d="M377.8,134.5c-0.2-1.6-0.5-3.5-0.7-5.8c-0.5,2.7-0.8,4.6-0.9,5.8H377.8z M380.4,125.6l2.8,13.9h-4.9l-0.3-2.5
		h-1.7l-0.3,2.5h-5l2.5-13.9H380.4z"/>
</g>
<polygon class="st0" points="390.2,125.6 390.2,136.7 393.1,136.7 393.1,139.4 385.3,139.4 385.3,125.6 "/>
<polygon class="st0" points="403.7,125.6 403.7,128.3 400.8,128.3 400.8,139.4 396,139.4 396,128.3 393.1,128.3 393.1,125.6 "/>
<polygon class="st0" points="417.2,125.6 417.2,139.4 412.4,139.4 412.4,133.6 411,133.6 411,139.4 406.1,139.4 406.1,125.6 
	411,125.6 411,130.5 412.4,130.5 412.4,125.6 "/>
<g>
	<path class="st0" d="M430.5,133.4c-0.8,0.4-1.2,0.8-1.3,1c-0.1,0.3-0.2,0.7-0.2,1.2c0,0.6,0.1,1,0.2,1.2c0.1,0.2,0.3,0.3,0.6,0.3
		c0.3,0,0.5-0.1,0.6-0.2c0.1-0.1,0.1-0.5,0.1-1.1V133.4z M429,131.8h-4.4V131c0-0.9,0.1-1.6,0.4-2.1c0.3-0.5,0.8-0.9,1.7-1.3
		c0.8-0.4,1.9-0.6,3.3-0.6c1.6,0,2.8,0.2,3.6,0.6c0.8,0.4,1.3,0.9,1.5,1.6c0.2,0.6,0.2,1.9,0.2,3.8v5.9h-4.6v-1
		c-0.3,0.4-0.7,0.7-1.1,0.9c-0.5,0.2-1,0.3-1.6,0.3c-0.8,0-1.6-0.2-2.3-0.5c-0.7-0.3-1-1.1-1-2.3v-1c0-0.9,0.2-1.5,0.6-1.8
		c0.4-0.3,1.3-0.7,2.7-1.1c1.6-0.5,2.4-0.8,2.5-0.9c0.1-0.2,0.2-0.5,0.2-1c0-0.6-0.1-1-0.2-1.2c-0.1-0.2-0.3-0.3-0.6-0.3
		c-0.3,0-0.5,0.1-0.6,0.2c-0.1,0.2-0.1,0.6-0.1,1.2V131.8z"/>
	<path class="st0" d="M442.9,130.4c0-0.5,0-0.9-0.1-1c-0.1-0.1-0.3-0.2-0.5-0.2c-0.3,0-0.5,0.1-0.6,0.3c-0.1,0.2-0.2,0.5-0.2,1v3.9
		c0,0.5,0,0.9,0.1,1s0.3,0.2,0.5,0.2c0.3,0,0.5-0.1,0.6-0.3c0.1-0.2,0.1-0.6,0.1-1.3V130.4z M447.7,127.3v9c0,1.2,0,2-0.1,2.4
		c-0.1,0.4-0.3,0.7-0.8,1.1c-0.5,0.4-1.1,0.7-1.9,0.9c-0.8,0.2-1.8,0.3-3.1,0.3c-1.5,0-2.7-0.2-3.6-0.6c-0.9-0.4-1.4-1.1-1.4-2.3
		h4.6c0,0.5,0.3,0.8,0.8,0.8c0.4,0,0.6-0.1,0.7-0.2c0.1-0.2,0.2-0.5,0.2-1v-0.9c-0.4,0.3-0.8,0.5-1.3,0.6c-0.4,0.1-0.9,0.2-1.4,0.2
		c-0.9,0-1.6-0.1-2.1-0.4c-0.6-0.3-0.9-0.6-1.1-1c-0.2-0.4-0.3-1-0.3-1.8v-4.2c0-1.1,0.3-1.9,0.8-2.4c0.5-0.5,1.3-0.7,2.4-0.7
		c0.6,0,1.1,0.1,1.6,0.3c0.5,0.2,0.9,0.5,1.3,0.8l0.3-0.9H447.7z"/>
</g>
<rect x="171.9" y="106.6" class="st0" width="16" height="15.6"/>
</svg>
