<?xml version="1.0" encoding="utf-8"?>
<!-- Generator: Adobe Illustrator 19.2.1, SVG Export Plug-In . SVG Version: 6.00 Build 0)  -->
<svg version="1.1" id="Ebene_1" xmlns="http://www.w3.org/2000/svg" xmlns:xlink="http://www.w3.org/1999/xlink" x="0px" y="0px"
	 viewBox="0 0 580 200" style="enable-background:new 0 0 580 200;" xml:space="preserve">
<style type="text/css">
	.st0{fill:#FFFFFF;}
</style>
<g>
	<path class="st0" d="M290.3,118.2c5.7,0,10.3-4.6,10.3-10.3c0-5.7-4.6-10.3-10.3-10.3c-5.7,0-10.3,4.6-10.3,10.3
		C280,113.6,284.6,118.2,290.3,118.2 M291.8,137.7H289v-5.6h2.7c1.9,0,2.5,1.3,2.5,2.7C294.3,136.3,293.5,137.7,291.8,137.7
		 M292.9,126.9h-10v23.8h6v-7.8l2,0c3.9,0,5.4-0.4,6.7-1.3c2-1.4,3.1-3.7,3.1-6.6C300.7,129.9,297.7,126.9,292.9,126.9 M280,83
		c0,5.7,4.6,10.3,10.3,10.3c5.7,0,10.3-4.6,10.3-10.3c0-5.7-4.6-10.3-10.3-10.3C284.6,72.7,280,77.3,280,83 M314.7,72.7
		c-5.7,0-10.3,4.6-10.3,10.3c0,5.7,4.6,10.3,10.3,10.3c5.7,0,10.3-4.6,10.3-10.3C325,77.3,320.4,72.7,314.7,72.7 M314.7,97.7
		c-5.7,0-10.3,4.6-10.3,10.3c0,5.7,4.6,10.3,10.3,10.3c5.7,0,10.3-4.6,10.3-10.3C325,102.3,320.4,97.7,314.7,97.7 M304.5,138.9
		c0,7.2,5.1,12.4,12.2,12.4c2.2,0,3.5-0.3,5.7-1.4l0-6.2c-2.2,1.6-3.2,1.9-5.1,1.9c-3.6,0-6.1-2.7-6.1-6.6c0-3.9,2.5-6.6,6.1-6.6
		c1.9,0,2.8-0.1,5.1,1.8v-6.2c-2.3-1.1-3.7-1.5-5.8-1.5C309.6,126.4,304.5,131.8,304.5,138.9 M265.3,93.2c5.7,0,10.3-4.6,10.3-10.3
		c0-5.7-4.6-10.3-10.3-10.3c-5.7,0-10.3,4.6-10.3,10.3C255,88.6,259.6,93.2,265.3,93.2 M265.3,68.9c5.7,0,10.3-4.6,10.3-10.3
		c0-5.7-4.6-10.3-10.3-10.3c-5.7,0-10.3,4.6-10.3,10.3C255,64.3,259.6,68.9,265.3,68.9 M314.7,68.9c5.7,0,10.3-4.6,10.3-10.3
		c0-5.7-4.6-10.3-10.3-10.3c-5.7,0-10.3,4.6-10.3,10.3C304.4,64.3,309,68.9,314.7,68.9 M290.3,68.9c5.7,0,10.3-4.6,10.3-10.3
		c0-5.7-4.6-10.3-10.3-10.3c-5.7,0-10.3,4.6-10.3,10.3C280,64.3,284.6,68.9,290.3,68.9 M270.5,141.4c0,1.4-0.2,2.4-1.2,3.3
		c-0.7,0.6-1.4,0.8-2.3,0.8c-1,0-1.6-0.2-2.3-0.8c-1.1-0.9-1.2-2-1.2-3.3v-14.4h-6.9v14.5c0,2.5,0.1,5.6,3.4,8
		c2.2,1.5,4.7,1.8,7,1.8c2.3,0,4.9-0.3,7-1.8c3.3-2.3,3.4-5.5,3.4-8v-14.5h-6.9V141.4z M265.3,118.2c5.7,0,10.3-4.6,10.3-10.3
		c0-5.7-4.6-10.3-10.3-10.3c-5.7,0-10.3,4.6-10.3,10.3C255,113.6,259.6,118.2,265.3,118.2 M290,28c39.8,0,72,32.2,72,72
		s-32.2,72-72,72s-72-32.2-72-72S250.2,28,290,28"/>
</g>
</svg>
